<svg width="1920" height="1040" viewBox="0 0 1920 1040" fill="none" xmlns="http://www.w3.org/2000/svg">
<g clip-path="url(#clip0_8036_25750)">
<rect width="1920" height="1040" fill="white"/>
<mask id="mask0_8036_25750" style="mask-type:luminance" maskUnits="userSpaceOnUse" x="-68" y="-37" width="2054" height="1113">
<path d="M1985.6 -36.3999H-67.2002V1075.1H1985.6V-36.3999Z" fill="white"/>
</mask>
<g mask="url(#mask0_8036_25750)">
<path d="M1985.6 -36.3999H-67.2002V1075.1H1985.6V-36.3999Z" fill="#F4F7FA"/>
</g>
<mask id="mask1_8036_25750" style="mask-type:luminance" maskUnits="userSpaceOnUse" x="-68" y="-37" width="2054" height="1113">
<path d="M1985.6 -36.3999H-67.2002V1075.1H1985.6V-36.3999Z" fill="white"/>
</mask>
<g mask="url(#mask1_8036_25750)">
<path d="M-294.89 320.114C-213.12 243.976 -74.7269 228.693 34.4137 283.573C120.631 326.922 185.294 407.088 274.762 442.934C405.286 495.036 543.85 438.349 662.228 381.107C780.606 323.865 916.433 264.261 1048.67 311.222C1100.5 329.7 1145.83 363.045 1194.76 388.332C1243.68 413.757 1301.68 431.403 1350.94 414.869C1402.95 397.363 1431.34 347.345 1467.78 308.86C1537.41 234.945 1648.26 198.543 1756.88 213.965C1865.51 229.387 1969.35 296.216 2027.51 388.332" stroke="#CDCDDB" stroke-width="0.5" stroke-miterlimit="10"/>
<path d="M-291.126 348.179C-225.265 284.268 -120.23 260.926 -24.0909 284.268C-4.0761 289.13 15.5965 295.938 34.5849 304.83C90.1816 331.09 137.738 372.771 188.203 408.895C216.258 429.179 245.339 447.519 277.671 460.301C286.224 463.636 294.777 466.554 303.331 469.054C351.229 482.948 399.983 483.365 447.882 474.89C498.004 465.998 547.443 447.936 594.999 427.512C618.778 417.37 642.043 406.533 664.795 395.973C745.367 358.182 834.322 320.808 924.132 314C967.24 310.805 1010.18 314.139 1052.6 328.033C1104.09 344.844 1149.08 375.55 1197.33 398.613C1207.93 403.615 1218.71 408.339 1230 412.368C1269.86 426.956 1313.14 433.625 1351.46 420.148C1403.29 401.948 1432.54 352.625 1469.66 314.834C1474.62 309.832 1479.76 304.83 1485.23 300.245C1556.22 237.862 1659.55 209.102 1760.82 223.691C1770.74 225.08 1780.66 226.886 1790.41 229.248C1888.43 251.478 1979.44 314 2033.16 397.363" stroke="#CDCDDB" stroke-width="0.5" stroke-miterlimit="10"/>
<path d="M-287.362 376.383C-223.212 311.5 -119.888 286.352 -24.0907 307.193C-4.0759 311.5 15.5968 317.891 34.5852 326.227C90.695 350.958 139.107 391.25 190.085 426.957C218.482 446.964 247.734 465.304 280.066 477.947C288.619 481.281 297.173 484.199 305.726 486.7C353.967 500.594 402.721 501.01 450.448 491.702C500.4 482.115 548.983 463.219 596.71 442.657C620.489 432.375 643.925 421.677 666.848 411.396C747.933 374.438 837.401 339.704 927.553 333.174C971.004 329.978 1013.94 332.757 1056.02 345.4C1107.34 360.545 1151.82 388.61 1199.21 409.312C1209.64 413.897 1220.25 418.065 1231.37 421.677C1270.54 434.598 1313.14 440.017 1351.11 426.123C1402.61 407.228 1432.88 358.599 1470.69 321.503C1475.82 316.501 1481.12 311.778 1486.43 307.193C1558.62 246.338 1662.11 219.245 1763.73 233.973C1773.65 235.362 1783.57 237.307 1793.49 239.53C1891.86 261.76 1983.38 323.726 2038.12 406.95" stroke="#CDCDDB" stroke-width="0.5" stroke-miterlimit="10"/>
<path d="M-283.428 404.449C-221.159 338.592 -119.375 311.639 -24.0907 329.978C-4.0759 333.869 15.5968 339.565 34.7562 347.484C91.2082 370.687 140.646 409.59 192.309 444.88C221.048 464.609 250.471 482.81 282.974 495.453C291.527 498.787 300.081 501.705 308.805 504.206C357.217 518.1 406.142 518.378 453.527 508.374C503.137 498.093 551.206 478.364 598.934 457.523C622.883 447.103 646.319 436.543 669.413 426.54C751.183 390.555 841.164 358.322 931.488 352.069C975.281 349.013 1018.22 351.236 1059.96 362.49C1110.94 376.106 1154.9 401.531 1201.77 419.871C1212.04 423.9 1222.47 427.651 1233.25 430.708C1271.74 441.962 1313.65 445.991 1351.46 431.681C1402.78 411.951 1433.74 364.157 1472.4 327.894C1477.53 323.031 1483.01 318.308 1488.48 313.862C1561.87 254.396 1665.53 228.971 1767.32 243.837C1777.24 245.365 1787.33 247.172 1797.08 249.395C1895.96 271.486 1987.82 333.174 2043.42 416.259" stroke="#CDCDDB" stroke-width="0.5" stroke-miterlimit="10"/>
<path d="M-279.665 432.514C-219.107 365.685 -119.033 336.925 -24.0915 352.903C-4.07665 356.237 15.596 361.517 34.9266 368.881C91.7207 390.694 142.185 428.068 194.532 462.941C223.442 482.393 253.208 500.455 285.881 513.237C294.435 516.571 303.159 519.489 311.712 521.99C360.295 535.884 409.392 536.023 456.606 525.186C506.044 514.071 553.43 493.508 601.157 472.667C625.107 462.108 648.714 451.826 671.979 441.962C754.262 406.811 844.927 377.217 935.421 371.104C979.557 368.186 1022.32 369.714 1064.06 379.579C1114.7 391.528 1158.32 414.313 1204.34 430.291C1214.43 433.765 1224.7 436.96 1235.3 439.6C1273.11 449.048 1314.51 452.104 1351.97 437.238C1403.12 416.953 1434.94 369.714 1474.28 334.146C1479.58 329.423 1485.06 324.838 1490.7 320.392C1565.46 262.594 1669.3 238.696 1771.25 253.702C1781.35 255.23 1791.27 257.036 1801.19 259.259C1900.41 281.211 1992.78 342.483 2049.24 425.428" stroke="#CDCDDB" stroke-width="0.5" stroke-miterlimit="10"/>
<path d="M-275.901 460.718C-217.054 392.917 -118.691 362.211 -24.0912 375.827C-4.07642 378.745 15.7673 383.469 34.9268 390.277C92.0631 410.562 143.554 446.547 196.414 481.003C225.666 500.176 255.603 518.238 288.277 530.882C296.83 534.216 305.554 537.134 314.279 539.635C363.033 553.528 412.3 553.389 459.343 541.997C508.439 530.048 555.312 508.791 602.868 487.811C626.818 477.113 650.596 466.97 674.032 457.245C756.828 423.066 848.178 395.973 938.843 390.138C983.149 387.359 1026.09 388.332 1067.49 396.807C1117.78 407.227 1161.06 427.234 1206.39 440.85C1216.31 443.768 1226.41 446.547 1236.84 448.631C1273.96 456.411 1314.68 458.078 1351.8 442.795C1402.78 421.816 1435.28 375.133 1475.48 340.398C1480.95 335.674 1486.43 331.228 1492.24 327.06C1568.2 270.652 1672.21 248.422 1774.5 263.705C1784.6 265.233 1794.52 267.039 1804.44 269.262C1904 291.214 1996.89 352.069 2054.37 434.737" stroke="#CDCDDB" stroke-width="0.5" stroke-miterlimit="10"/>
<path d="M-272.138 488.783C-215.172 420.009 -118.178 387.498 -24.2621 398.613C-4.41833 400.975 15.5965 405.143 34.927 411.534C92.4054 430.291 144.923 464.886 198.467 498.926C227.89 517.821 258.169 535.744 291.014 548.388C299.738 551.722 308.292 554.64 317.016 557.002C365.941 570.896 415.208 570.618 462.252 558.53C511.006 545.887 557.365 523.796 604.921 502.538C629.042 491.84 652.82 481.698 676.427 472.25C759.737 439.044 851.77 414.452 942.607 408.894C987.255 406.255 1030.19 406.532 1071.25 413.757C1121.37 422.51 1164.14 440.016 1208.79 451.27C1218.54 453.771 1228.46 455.994 1238.72 457.661C1275.16 463.775 1315.36 464.192 1352.14 448.492C1402.78 426.817 1436.31 380.829 1477.36 346.928C1482.84 342.343 1488.65 338.036 1494.47 333.868C1571.45 278.988 1675.97 258.425 1778.27 273.847C1788.36 275.375 1798.28 277.182 1808.38 279.405C1908.45 301.218 2001.68 361.656 2060.01 444.185" stroke="#CDCDDB" stroke-width="0.5" stroke-miterlimit="10"/>
<path d="M-268.374 516.849C-213.119 447.242 -117.835 412.646 -24.2619 421.538C-4.41812 423.344 15.5967 427.096 35.0983 432.792C93.0899 450.02 146.463 483.226 200.691 516.849C230.456 535.467 260.735 553.39 293.922 565.894C302.647 569.229 311.371 572.146 320.095 574.508C369.363 588.402 418.63 587.985 465.502 575.064C514.085 561.726 559.76 538.662 607.316 517.405C631.437 506.568 655.386 496.564 679.164 487.395C762.987 455.022 855.534 433.209 946.713 427.79C991.703 425.289 1034.47 424.873 1075.35 430.847C1125.14 438.072 1167.56 452.799 1211.35 461.691C1220.93 463.636 1230.68 465.303 1240.78 466.554C1276.36 470.861 1316.05 470.166 1352.65 453.911C1403.12 431.542 1437.33 386.248 1479.24 353.042C1484.89 348.596 1490.7 344.289 1496.69 340.26C1574.87 286.908 1679.56 267.873 1782.2 283.573C1792.3 285.102 1802.39 286.908 1812.31 289.131C1912.73 310.944 2006.47 370.965 2065.83 453.216" stroke="#CDCDDB" stroke-width="0.5" stroke-miterlimit="10"/>
<path d="M-264.611 545.053C-211.067 474.473 -117.323 438.072 -24.2626 444.463C-4.41891 445.852 15.5959 448.909 35.0975 454.188C93.4312 469.888 147.83 501.705 202.572 534.911C232.68 553.112 263.129 571.035 296.316 583.539C305.041 586.874 313.765 589.652 322.489 592.153C371.928 605.908 421.366 605.491 468.067 591.875C516.308 577.704 561.47 553.945 609.026 532.41C633.147 521.434 657.267 511.569 681.216 502.677C765.552 471.278 858.784 451.965 950.133 446.825C995.466 444.324 1038.23 443.49 1078.78 448.075C1128.38 453.633 1170.12 465.859 1213.4 472.25C1222.81 473.64 1232.39 474.89 1242.32 475.585C1277.21 478.224 1316.22 476.279 1352.48 459.607C1402.6 436.543 1437.84 391.944 1480.44 359.433C1486.26 355.126 1492.07 350.958 1498.23 346.928C1577.61 294.966 1682.47 277.738 1785.28 293.576C1795.37 295.105 1805.47 297.05 1815.56 299.134C1916.32 320.808 2010.58 380.551 2070.79 462.663" stroke="#CDCDDB" stroke-width="0.5" stroke-miterlimit="10"/>
<path d="M-260.848 573.119C-209.186 501.566 -116.981 463.219 -24.4335 467.248C-4.5898 468.082 15.425 470.722 35.0976 475.446C93.7735 489.617 149.199 520.045 204.625 552.834C235.075 570.757 265.696 588.541 299.054 601.045C307.778 604.38 316.502 607.158 325.398 609.659C375.007 623.414 424.616 622.858 470.976 608.548C518.874 593.682 563.523 569.09 610.908 547.415C635.2 536.3 659.32 526.575 683.44 517.961C768.289 487.394 862.205 470.722 953.726 465.859C999.4 463.497 1042.17 461.969 1082.37 465.303C1131.64 469.332 1173.03 478.78 1215.46 482.948C1224.7 483.782 1234.1 484.616 1243.68 484.893C1277.9 485.866 1316.39 482.532 1352.31 465.442C1402.26 441.684 1438.36 397.78 1481.64 366.102C1487.45 361.795 1493.44 357.766 1499.6 354.014C1580.17 303.58 1685.38 287.88 1788.36 303.858C1798.45 305.386 1808.55 307.331 1818.64 309.415C1919.91 331.09 2014.51 390.277 2075.58 472.25" stroke="#CDCDDB" stroke-width="0.5" stroke-miterlimit="10"/>
<path d="M-257.084 601.184C-207.133 528.659 -116.467 488.506 -24.4333 490.173C-4.5896 490.59 15.4252 492.674 35.2689 496.842C94.458 509.485 150.739 538.523 206.678 570.896C237.299 588.541 268.262 606.325 301.791 618.69C310.515 621.886 319.411 624.803 328.135 627.304C377.915 641.059 427.696 640.364 473.884 625.22C521.611 609.52 565.576 584.095 612.961 562.281C637.252 551.028 661.715 541.441 685.835 533.105C771.198 503.511 865.798 489.339 957.489 484.615C1003.51 482.392 1046.27 480.169 1086.13 482.115C1135.06 484.476 1175.94 491.284 1217.85 493.091C1226.92 493.507 1236.16 493.646 1245.57 493.507C1279.09 492.813 1316.9 488.228 1352.65 470.722C1402.43 446.269 1439.21 402.92 1483.35 372.076C1489.34 367.908 1495.49 364.018 1501.65 360.266C1583.42 311.36 1688.8 297.328 1792.12 313.444C1802.22 314.973 1812.48 316.918 1822.57 319.002C1924.19 340.537 2019.13 399.447 2081.4 481.142" stroke="#CDCDDB" stroke-width="0.5" stroke-miterlimit="10"/>
<path d="M-253.149 629.249C-204.909 555.751 -115.954 515.599 -24.2622 512.959C-4.41848 512.403 15.5963 514.348 35.44 518.099C94.9712 529.214 152.279 556.863 208.902 588.819C239.865 606.186 270.999 623.831 304.528 636.335C313.252 639.531 322.148 642.448 331.043 644.949C380.995 658.704 430.946 657.871 476.963 642.032C524.349 625.637 567.8 599.378 615.185 577.426C639.477 566.172 664.11 556.585 688.402 548.527C774.277 519.906 869.561 508.235 961.424 503.789C1007.78 501.705 1050.38 498.926 1090.24 499.482C1138.99 500.315 1179.36 504.484 1220.59 503.789C1229.49 503.65 1238.55 503.372 1247.79 502.677C1280.46 500.315 1317.76 494.48 1353.17 476.418C1402.6 451.27 1440.41 408.617 1485.23 378.467C1491.22 374.438 1497.55 370.548 1503.88 366.935C1586.84 319.419 1692.39 307.053 1795.89 323.448C1806.15 325.115 1816.24 326.921 1826.34 329.006C1928.29 350.402 2023.75 408.895 2086.87 490.451" stroke="#CDCDDB" stroke-width="0.5" stroke-miterlimit="10"/>
<path d="M-249.386 657.454C-203.027 582.983 -115.441 538.94 -24.262 535.884C-4.41825 535.189 15.5966 536.3 35.6114 539.496C95.4847 549.083 153.818 575.342 211.126 606.881C242.26 624.109 273.736 641.615 307.436 653.981C316.332 657.176 325.056 660.094 333.952 662.456C384.245 676.211 434.197 675.238 480.043 658.565C527.086 641.476 569.853 614.383 617.409 592.153C641.701 580.76 666.505 571.313 690.968 563.532C777.356 535.745 873.154 526.714 965.359 522.546C1012.06 520.601 1054.66 517.127 1094.17 516.432C1142.58 515.599 1182.44 517.127 1222.99 514.209C1231.71 513.515 1240.6 512.82 1249.67 511.709C1281.66 507.679 1318.44 500.455 1353.51 481.976C1402.78 456.134 1441.27 414.174 1486.94 384.859C1493.1 380.968 1499.43 377.217 1505.93 373.744C1590.09 327.755 1695.98 317.057 1799.65 333.591C1809.92 335.258 1820.01 337.064 1830.1 339.287C1932.57 360.683 2028.37 418.759 2092.52 500.038" stroke="#CDCDDB" stroke-width="0.5" stroke-miterlimit="10"/>
<path d="M-245.622 685.519C-200.974 610.215 -115.098 564.088 -24.4329 558.808C-4.58913 557.697 15.4257 558.114 35.6115 560.892C95.827 568.951 155.187 593.821 213.008 624.804C244.484 641.754 276.131 659.121 310.002 671.487C318.898 674.682 327.793 677.6 336.689 679.962C387.154 693.717 437.276 692.744 482.951 675.238C529.823 657.315 571.906 629.389 619.462 607.159C643.925 595.627 668.729 586.318 693.363 578.676C780.265 551.862 876.746 545.331 969.122 541.441C1016.17 539.635 1058.76 535.467 1097.94 533.522C1146.18 531.021 1185.52 530.048 1225.38 524.63C1233.93 523.518 1242.66 522.268 1251.55 520.601C1282.86 514.765 1318.95 506.429 1353.85 487.533C1402.78 460.996 1442.29 419.732 1488.82 391.111C1495.15 387.221 1501.48 383.608 1508.15 380.274C1593.34 335.814 1699.58 326.644 1803.59 343.455C1813.85 345.123 1824.11 346.929 1834.21 349.152C1937.02 370.409 2033.33 428.068 2098.33 509.208" stroke="#CDCDDB" stroke-width="0.5" stroke-miterlimit="10"/>
<path d="M-241.859 713.585C-198.922 637.308 -114.586 589.236 -24.4336 581.594C-4.5899 579.927 15.596 579.927 35.7819 582.15C96.5105 588.68 156.726 612.16 215.231 642.727C247.049 659.399 278.697 676.627 312.739 688.993C321.634 692.188 330.53 695.106 339.425 697.468C390.061 711.223 440.183 710.111 485.687 691.91C532.217 673.293 573.787 644.533 621.172 622.025C645.635 610.354 670.61 601.184 695.415 593.821C782.83 567.839 879.996 563.949 972.543 560.337C1019.93 558.669 1062.35 553.945 1101.36 550.611C1149.25 546.582 1188.09 542.969 1227.43 535.05C1235.81 533.383 1244.37 531.577 1252.92 529.492C1283.54 521.99 1318.95 512.403 1353.51 492.952C1402.26 465.581 1442.46 425.15 1489.85 397.363C1496.18 393.612 1502.85 390.138 1509.52 386.804C1595.91 343.733 1702.31 336.369 1806.49 353.32C1816.76 354.987 1827.02 356.932 1837.11 359.016C1940.27 380.274 2037.09 437.516 2102.95 518.516" stroke="#CDCDDB" stroke-width="0.5" stroke-miterlimit="10"/>
<path d="M-238.096 741.789C-197.04 664.54 -114.243 614.522 -24.4334 604.519C-4.58968 602.296 15.5962 601.879 35.7821 603.546C96.8529 608.548 158.095 630.639 217.113 660.788C249.102 677.183 281.092 694.411 315.305 706.638C324.2 709.833 333.096 712.612 342.162 715.113C392.969 728.729 443.263 727.617 488.596 708.583C534.784 689.271 575.839 659.677 623.225 637.03C647.688 625.22 672.834 616.189 697.81 609.104C785.738 584.095 883.589 582.706 976.307 579.232C1024.03 577.565 1066.46 572.285 1105.12 567.7C1152.85 562.004 1191.17 555.752 1229.66 545.609C1237.87 543.386 1246.25 541.163 1254.63 538.523C1284.4 529.354 1319.3 518.377 1353.68 498.648C1402.26 470.583 1443.32 430.708 1491.39 403.754C1497.89 400.142 1504.56 396.668 1511.4 393.473C1598.99 351.93 1705.74 346.234 1810.09 363.184C1820.35 364.852 1830.61 366.797 1840.88 368.881C1944.54 390.138 2041.88 447.103 2108.77 527.825" stroke="#CDCDDB" stroke-width="0.5" stroke-miterlimit="10"/>
<path d="M-234.332 769.854C-194.987 691.632 -113.73 639.67 -24.6043 627.443C-4.93162 624.664 15.4254 623.692 35.7823 624.803C97.1952 628.277 159.463 648.979 219.166 678.711C251.497 694.828 283.658 711.917 318.042 724.144C326.938 727.339 336.004 730.118 345.071 732.619C396.22 746.235 446.513 744.984 491.675 725.255C537.692 705.248 578.064 674.682 625.449 652.035C650.083 640.225 675.23 631.195 700.376 624.387C788.818 600.35 887.352 601.462 980.241 598.266C1028.31 596.738 1070.74 590.764 1109.05 584.789C1156.44 577.426 1194.25 568.673 1232.22 556.029C1240.26 553.39 1248.47 550.611 1256.69 547.554C1285.77 536.717 1320.15 524.491 1354.02 504.206C1402.26 475.446 1444.35 436.265 1493.1 410.006C1499.77 406.533 1506.44 403.198 1513.29 400.141C1602.07 359.989 1708.99 355.959 1813.51 373.188C1823.77 374.855 1834.21 376.8 1844.3 378.884C1948.31 399.864 2045.99 456.411 2113.73 536.995" stroke="#CDCDDB" stroke-width="0.5" stroke-miterlimit="10"/>
<path d="M-230.568 797.92C-192.934 718.725 -113.388 664.818 -24.6041 650.229C-4.93144 647.034 15.4255 645.505 35.9535 646.061C97.8796 648.006 161.003 667.319 221.39 696.634C254.064 712.473 286.395 729.563 320.779 741.65C329.675 744.846 338.742 747.624 347.808 750.125C399.128 763.741 449.593 762.352 494.583 741.928C540.258 721.087 580.117 689.826 627.502 666.902C652.136 654.953 677.453 646.061 702.771 639.531C791.726 616.328 890.774 620.08 984.005 617.162C1032.42 615.773 1074.84 609.104 1112.82 601.879C1159.86 592.987 1197.33 581.594 1234.45 566.45C1242.32 563.254 1250.36 560.059 1258.4 556.446C1286.79 543.942 1320.49 530.465 1354.19 509.763C1402.26 480.309 1445.03 441.823 1494.64 416.397C1501.31 412.924 1508.15 409.728 1515.17 406.811C1604.98 368.186 1712.24 365.824 1817.1 383.191C1827.53 384.859 1837.8 386.804 1848.06 388.888C1952.41 409.867 2050.61 465.998 2119.37 546.304" stroke="#CDCDDB" stroke-width="0.5" stroke-miterlimit="10"/>
<path d="M-226.805 826.124C-191.052 745.957 -112.874 689.965 -24.6039 673.154C-4.93123 669.402 15.4257 667.318 35.9537 667.457C98.222 667.874 162.372 685.936 223.272 714.696C256.116 730.257 288.79 747.207 323.346 759.434C332.412 762.629 341.308 765.408 350.545 767.77C402.036 781.386 452.672 779.858 497.492 758.6C542.824 737.065 582.17 704.97 629.384 681.907C654.018 669.819 679.507 661.066 704.995 654.814C794.463 632.584 894.195 638.836 987.598 636.196C1036.35 634.946 1078.61 627.582 1116.58 619.107C1163.45 608.548 1200.23 594.654 1236.84 577.148C1244.54 573.396 1252.41 569.645 1260.28 565.616C1287.99 551.444 1321.01 536.578 1354.54 515.46C1402.26 485.31 1446.06 447.519 1496.35 422.788C1503.19 419.454 1510.21 416.397 1517.22 413.479C1608.23 376.244 1715.83 375.549 1820.86 393.195C1831.3 395.001 1841.56 396.807 1851.83 398.891C1956.52 419.732 2055.22 475.446 2124.85 555.612" stroke="#CDCDDB" stroke-width="0.5" stroke-miterlimit="10"/>
<path d="M-222.87 854.19C-188.828 773.05 -112.361 715.113 -24.6039 696.079C-4.9312 691.772 15.4257 689.271 36.1248 688.854C98.7352 687.742 163.912 704.415 225.496 732.758C258.683 748.041 291.527 764.853 326.254 777.079C335.32 780.275 344.387 783.054 353.453 785.415C405.116 799.031 455.922 797.364 500.571 775.412C545.732 753.182 584.393 720.115 631.608 696.912C656.413 684.686 681.901 676.072 707.733 670.097C797.885 648.701 898.13 657.593 991.703 655.231C1040.8 654.12 1083.05 646.2 1120.69 636.336C1167.22 624.109 1203.65 607.714 1239.58 587.707C1247.11 583.539 1254.8 579.232 1262.5 574.786C1289.36 558.947 1322.03 542.831 1355.05 521.295C1402.61 490.451 1447.08 453.355 1498.23 429.319C1505.25 426.123 1512.26 423.066 1519.44 420.288C1611.65 384.581 1719.42 385.553 1824.63 403.337C1835.06 405.144 1845.33 406.95 1855.76 409.034C1960.97 429.874 2060.01 485.172 2130.49 565.2" stroke="#CDCDDB" stroke-width="0.5" stroke-miterlimit="10"/>
<path d="M-219.107 882.255C-186.776 800.282 -111.849 740.261 -24.6046 718.864C-4.93198 714.002 15.425 710.945 36.2951 710.111C99.4187 707.471 165.45 722.755 227.719 750.681C261.077 765.686 294.093 782.498 328.99 794.585C338.057 797.781 347.123 800.56 356.361 802.922C408.194 816.537 459.172 814.731 503.478 791.946C548.298 768.882 586.445 735.12 633.66 711.779C658.465 699.413 684.125 690.938 710.127 685.242C800.792 664.818 901.721 676.211 995.466 673.988C1044.73 673.015 1087.16 664.401 1124.45 653.286C1170.81 639.392 1206.73 620.497 1241.8 598.128C1249.16 593.404 1256.68 588.68 1264.04 583.678C1290.21 566.172 1322.2 548.805 1355.05 526.714C1402.26 495.036 1447.77 458.773 1499.77 435.571C1506.78 432.514 1513.97 429.596 1521.32 426.957C1614.73 392.639 1722.67 395.279 1828.22 413.341C1838.65 415.147 1849.09 417.092 1859.35 419.037C1964.9 439.739 2064.46 494.619 2135.97 574.508" stroke="#CDCDDB" stroke-width="0.5" stroke-miterlimit="10"/>
<path d="M-215.344 910.459C-184.894 827.514 -111.506 765.408 -24.6044 741.789C-4.93173 736.509 15.4252 732.897 36.2954 731.508C99.7611 727.34 166.648 741.233 229.601 768.743C263.301 783.47 296.488 800.143 331.556 812.23C340.623 815.426 349.69 818.205 358.927 820.567C411.102 834.183 462.08 832.237 506.216 808.757C550.864 784.999 588.328 750.403 635.542 726.784C660.347 714.279 686.178 705.943 712.351 700.386C803.529 680.934 905.143 694.828 999.059 692.883C1048.67 692.049 1091.09 682.741 1128.04 670.236C1174.06 654.814 1209.64 633.279 1244.03 608.409C1251.21 603.268 1258.57 597.989 1265.75 592.431C1291.24 573.258 1322.55 554.501 1355.22 532.132C1402.26 499.76 1448.45 464.053 1501.31 441.684C1508.5 438.627 1515.68 435.849 1523.21 433.348C1617.64 400.42 1726.09 404.866 1831.81 422.928C1842.25 424.734 1852.68 426.679 1863.12 428.624C1969.01 449.187 2069.08 503.789 2141.44 583.4" stroke="#CDCDDB" stroke-width="0.5" stroke-miterlimit="10"/>
<path d="M-211.58 938.524C-182.841 854.606 -110.993 790.556 -24.6042 764.714C-4.93157 758.878 15.4254 754.71 36.4666 752.904C100.274 747.069 168.188 759.712 231.825 786.805C265.696 801.254 299.225 817.927 334.465 829.875C343.531 832.932 352.769 835.85 362.006 838.212C414.353 851.689 465.502 849.882 509.466 825.568C553.772 801.115 590.551 765.547 637.766 741.928C662.742 729.424 688.573 721.087 714.917 715.808C806.609 697.19 908.736 713.724 1002.99 712.056C1052.94 711.223 1095.2 701.358 1131.98 687.603C1177.65 670.514 1212.72 646.478 1246.59 619.107C1253.61 613.411 1260.79 607.575 1267.8 601.74C1292.61 580.899 1323.23 560.892 1355.56 537.968C1402.26 504.9 1449.48 469.888 1503.02 448.214C1510.21 445.296 1517.73 442.656 1525.09 440.156C1620.72 408.756 1729.34 414.73 1835.23 433.07C1845.67 434.876 1856.1 436.821 1866.54 438.766C1972.94 459.329 2073.36 513.376 2146.74 592.848" stroke="#CDCDDB" stroke-width="0.5" stroke-miterlimit="10"/>
<path d="M-207.816 966.59C-180.788 881.699 -110.651 815.565 -24.7751 787.499C-5.10244 781.108 15.4256 776.523 36.4668 774.161C100.788 766.798 169.557 778.191 233.707 804.728C267.92 818.899 301.62 835.433 336.86 847.381C345.926 850.438 355.164 853.217 364.402 855.718C416.919 869.195 468.239 867.249 512.032 842.102C556.167 816.954 592.262 780.552 639.477 756.655C664.452 744.012 690.455 735.815 716.97 730.813C809.175 713.168 911.986 732.202 1006.41 730.813C1056.71 730.118 1098.96 719.559 1135.4 704.554C1180.9 685.797 1215.46 659.26 1248.47 629.527C1255.32 623.275 1262.33 617.023 1269.17 610.632C1293.29 588.124 1323.23 566.728 1355.39 543.525C1401.92 509.763 1449.99 475.446 1504.22 454.605C1511.57 451.826 1519.1 449.187 1526.63 446.825C1623.45 416.814 1732.25 424.595 1838.48 443.073C1848.92 444.88 1859.52 446.825 1869.96 448.909C1976.7 469.332 2077.63 523.101 2151.88 602.296" stroke="#CDCDDB" stroke-width="0.5" stroke-miterlimit="10"/>
<path d="M-204.054 994.794C-178.907 908.931 -110.309 840.712 -24.7758 810.563C-5.10316 803.616 15.4248 798.475 36.466 795.558C101.129 786.666 170.924 796.669 235.759 822.65C270.314 836.544 304.185 852.939 339.596 864.888C348.663 867.944 357.9 870.723 367.309 873.085C419.998 886.562 471.489 884.478 515.111 858.635C558.904 832.654 594.486 795.558 641.7 771.521C666.676 758.739 692.849 750.681 719.535 745.957C812.253 729.146 915.749 750.82 1010.35 749.708C1060.98 749.153 1103.24 737.899 1139.33 721.643C1184.49 701.219 1218.71 672.181 1251.04 639.948C1257.71 633.279 1264.55 626.471 1271.23 619.524C1294.66 595.349 1324.08 572.702 1355.9 548.944C1402.09 514.487 1451.02 480.864 1506.1 460.718C1513.63 457.94 1521.15 455.578 1528.85 453.355C1626.7 424.733 1736.01 434.181 1842.42 452.938C1853.02 454.744 1863.46 456.689 1873.89 458.773C1980.98 479.197 2082.42 532.549 2157.52 611.604" stroke="#CDCDDB" stroke-width="0.5" stroke-miterlimit="10"/>
<path d="M-200.29 1022.86C-176.854 936.024 -109.796 865.86 -24.7756 833.349C-5.27403 825.846 15.4251 820.289 36.6373 816.815C101.643 806.395 172.464 815.009 237.983 840.574C272.709 854.189 306.923 870.584 342.504 882.533C351.742 885.589 360.98 888.368 370.217 890.73C423.077 904.207 474.739 901.984 518.019 875.447C561.47 848.771 596.538 810.702 643.753 786.666C668.9 773.745 695.073 765.825 721.93 761.379C815.162 745.54 919.341 769.715 1014.11 768.882C1065.09 768.465 1107.17 756.655 1143.27 739.01C1188.09 717.058 1221.96 685.38 1253.43 650.646C1259.93 643.421 1266.44 636.196 1272.94 628.833C1295.52 602.99 1324.43 579.093 1355.9 554.918C1401.92 519.628 1451.7 486.839 1507.47 467.387C1515 464.748 1522.69 462.386 1530.56 460.302C1629.61 433.209 1739.09 444.324 1845.67 463.219C1856.27 465.025 1866.71 466.971 1877.31 469.055C1984.92 489.34 2086.7 542.275 2162.82 621.191" stroke="#CDCDDB" stroke-width="0.5" stroke-miterlimit="10"/>
<path d="M-196.526 1050.92C-174.801 963.116 -109.453 890.869 -24.9465 856.135C-5.44491 848.076 15.2542 841.963 36.6375 838.073C101.985 826.124 173.833 833.349 239.865 858.496C274.933 871.973 309.147 888.09 344.9 900.039C354.137 903.095 363.375 905.874 372.783 908.236C425.985 921.713 477.647 919.49 520.756 891.98C564.036 864.61 598.42 825.707 645.464 801.393C670.61 788.333 696.955 780.552 723.983 776.384C817.728 761.518 922.592 788.194 1017.53 787.499C1068.85 787.221 1110.94 774.717 1146.69 755.822C1191.34 732.202 1224.7 698.024 1255.49 660.927C1261.82 653.286 1268.15 645.505 1274.48 637.586C1296.37 610.076 1324.6 584.79 1355.9 560.198C1401.58 524.213 1452.21 491.979 1508.84 473.501C1516.54 471 1524.4 468.777 1532.27 466.693C1632.52 440.989 1742.17 453.772 1849.09 472.945C1859.69 474.89 1870.3 476.835 1880.74 478.78C1988.68 498.926 2090.98 551.583 2167.96 630.222" stroke="#CDCDDB" stroke-width="0.5" stroke-miterlimit="10"/>
<path d="M-192.592 1079.13C-172.748 990.487 -108.94 916.017 -24.7754 879.198C-5.27379 870.584 15.4253 864.054 36.9797 859.608C102.84 845.992 175.544 851.966 242.26 876.697C277.499 889.896 312.055 905.874 347.979 917.823C357.216 920.879 366.454 923.658 375.863 926.02C429.236 939.497 481.069 937.135 524.006 908.931C567.115 880.865 600.815 841.129 647.859 816.676C673.006 803.616 699.521 795.836 726.72 791.945C820.978 777.913 926.355 807.229 1021.64 806.812C1073.3 806.673 1115.21 793.335 1150.79 773.189C1195.1 747.763 1228.12 711.084 1258.22 671.626C1264.38 663.428 1270.71 655.092 1276.7 646.756C1298.08 617.579 1325.45 591.042 1356.42 566.033C1401.75 529.354 1453.41 497.815 1510.89 480.031C1518.76 477.669 1526.63 475.446 1534.67 473.501C1635.94 449.048 1746.11 463.775 1853.02 482.948C1863.63 484.894 1874.24 486.839 1884.67 488.784C1992.96 508.93 2095.77 561.031 2173.77 639.531" stroke="#CDCDDB" stroke-width="0.5" stroke-miterlimit="10"/>
<path d="M-188.828 1107.19C-170.695 1017.58 -108.598 941.025 -24.7752 901.984C-5.27356 892.953 15.4255 885.728 36.9799 880.865C103.183 865.582 176.912 870.445 244.313 894.62C279.895 907.541 314.621 923.519 350.716 935.329C359.954 938.386 369.362 941.164 378.771 943.526C432.315 957.003 484.319 954.502 527.086 925.464C569.853 896.704 603.04 855.996 650.083 831.404C675.23 818.205 701.916 810.702 729.287 806.812C824.058 793.752 930.119 825.568 1025.57 825.429C1077.58 825.429 1119.49 811.536 1154.73 790C1198.69 763.046 1231.37 723.727 1260.62 681.768C1266.61 673.015 1272.77 664.262 1278.58 655.37C1299.11 624.526 1325.97 596.599 1356.76 571.174C1401.75 533.661 1454.27 502.955 1512.6 485.866C1520.47 483.504 1528.51 481.559 1536.72 479.753C1639.19 456.828 1749.53 473.084 1856.79 492.535C1867.39 494.48 1878 496.425 1888.61 498.37C1997.23 518.377 2100.56 570.201 2179.42 648.423" stroke="#CDCDDB" stroke-width="0.5" stroke-miterlimit="10"/>
<path d="M-185.064 1135.26C-168.813 1044.67 -108.256 966.173 -24.775 924.769C-5.27341 915.183 15.4257 907.541 37.1511 902.123C103.696 885.311 178.452 888.785 246.366 912.543C282.29 925.186 317.187 941.025 353.282 952.835C362.52 955.891 371.929 958.67 381.337 961.032C435.052 974.37 487.227 971.869 529.823 942.137C572.248 912.543 604.921 871.14 651.965 846.409C677.283 833.071 703.969 825.707 731.511 822.095C826.795 809.868 933.54 844.463 1029.34 844.463C1081.68 844.463 1123.6 830.014 1158.49 807.228C1202.12 778.607 1234.45 736.787 1263.01 692.466C1269 683.296 1274.65 673.987 1280.46 664.678C1300.31 632.167 1326.48 602.99 1357.1 577.148C1401.92 538.94 1455.29 508.929 1514.31 492.674C1522.35 490.451 1530.39 488.506 1538.6 486.838C1642.27 465.303 1752.78 483.365 1860.38 502.955C1870.99 504.9 1881.59 506.845 1892.2 508.79C2001.34 528.797 2105 580.065 2184.89 658.148" stroke="#CDCDDB" stroke-width="0.5" stroke-miterlimit="10"/>
<path d="M-181.302 1163.46C-166.761 1071.9 -108.085 991.182 -24.9468 947.833C-5.6163 937.691 15.2538 929.493 37.1504 923.658C104.037 905.318 179.82 907.402 248.418 930.744C284.513 943.109 319.752 958.948 356.019 970.619C365.256 973.675 374.665 976.454 384.245 978.677C438.302 992.015 490.306 989.375 532.731 958.948C574.984 928.66 606.973 886.423 653.846 861.414C679.164 847.937 706.021 840.712 733.734 837.378C829.531 826.124 936.961 863.22 1032.93 863.498C1085.62 863.637 1127.53 848.493 1162.08 824.457C1205.54 794.168 1237.35 749.847 1265.07 703.025C1270.88 693.3 1276.36 683.574 1282 673.709C1301.16 639.531 1326.82 609.104 1356.93 582.705C1401.58 543.803 1455.81 514.487 1515.51 498.926C1523.72 496.842 1531.93 495.036 1540.14 493.369C1645.01 473.362 1755.86 492.952 1863.46 512.82C1874.06 514.765 1884.84 516.71 1895.45 518.655C2004.93 538.523 2109.11 589.513 2189.85 667.457" stroke="#CDCDDB" stroke-width="0.5" stroke-miterlimit="10"/>
<path d="M-177.538 1191.53C-164.708 1099 -107.572 1016.33 -24.9466 970.619C53.9151 926.993 158.608 918.24 250.471 948.528C296.146 963.672 340.281 984.652 386.982 996.183C441.21 1009.52 493.385 1006.74 535.639 975.482C577.55 944.499 609.026 901.289 655.899 876.28C768.974 815.982 912.67 881.699 1036.69 882.394C1169.95 883.088 1232.74 782.22 1283.88 682.602C1333.32 586.457 1429.98 519.628 1542.2 499.899C1658.69 479.475 1781.35 507.262 1899.21 528.52C2009.04 548.388 2113.56 598.961 2195.33 676.627" stroke="#CDCDDB" stroke-width="0.5" stroke-miterlimit="10"/>
</g>
<mask id="mask2_8036_25750" style="mask-type:luminance" maskUnits="userSpaceOnUse" x="-68" y="-37" width="2054" height="1113">
<path d="M1985.6 -36.3999H-67.2002V1075.1H1985.6V-36.3999Z" fill="white"/>
</mask>
<g mask="url(#mask2_8036_25750)">
<path d="M-333.551 509.069C-239.123 432.931 -100.045 402.643 29.4521 422.928C97.7077 433.626 156.041 455.161 206.335 492.813C259.024 532.271 328.819 556.724 400.496 559.503C473.541 562.421 545.902 544.081 610.566 516.432C713.548 472.389 794.12 399.308 920.367 402.504C972.029 403.754 1024.89 422.372 1053.46 457.384C1084.42 495.592 1077.06 553.529 1031.9 582.567C983.149 613.828 907.024 591.459 851.598 590.764C789.672 589.93 731.339 607.298 690.796 649.812C645.634 697.051 645.463 758.462 615.698 814.453C594.827 853.912 561.469 888.646 516.992 902.679C460.027 920.741 404.772 901.15 349.86 878.504C296.145 856.413 232.166 842.936 175.03 843.213C80.43 843.769 -5.95871 877.809 -70.6219 938.525C-92.3474 958.948 -111.336 982.012 -126.903 1007.02C-136.312 1022.16 -168.814 1067.46 -163.34 1086.35C-199.264 962.7 -235.872 838.906 -272.481 715.252C-277.955 697.051 -346.381 519.489 -333.551 509.069Z" fill="#06044B"/>
<path d="M2305.32 452.799L2302.42 453.355C2267 528.937 2165.05 553.39 2075.24 541.997C1985.26 530.743 1899.04 492.674 1809.57 476.002C1676.65 451.271 1542.54 477.391 1434.59 542.692C1299.96 624.248 1219.22 750.959 1083.39 832.932C1030.36 865.027 964.332 893.926 899.669 906.43C810.201 923.658 720.391 897.955 697.981 819.872C667.873 715.391 786.936 652.591 898.471 646.061C995.979 640.365 1095.88 632.862 1142.75 552.001C1189.8 470.722 1209.81 383.886 1286.11 315.251C1352.82 255.091 1443.83 215.633 1544.25 211.743C1617.98 208.825 1685.55 227.165 1757.4 238.002C1886.72 257.592 2013.65 274.403 2136.31 226.887C2186.95 207.297 2232.79 180.204 2271.79 147.554C2291.47 131.159 2309.43 113.375 2325.51 94.4794C2337.31 80.4468 2352.88 41.8221 2368.79 33.208C2366.05 34.7363 2368.28 33.6248 2365.54 35.0142C2366.74 35.7089 2367.76 34.5974 2369.13 35.2921L2305.32 452.799Z" fill="#06044B"/>
</g>
<mask id="mask3_8036_25750" style="mask-type:luminance" maskUnits="userSpaceOnUse" x="-68" y="-37" width="2054" height="1113">
<path d="M1985.6 -36.3999H-67.2002V1075.1H1985.6V-36.3999Z" fill="white"/>
</mask>
<g mask="url(#mask3_8036_25750)">
<path d="M-97.9922 825.29C-62.7525 745.957 42.6246 691.354 145.949 698.718C219.508 703.998 289.987 737.065 363.204 728.868C452.329 719.003 511.176 654.953 571.05 607.297C646.148 547.554 719.535 522.545 824.741 548.11C902.748 567.005 967.069 610.493 1051.06 610.632C1205.54 610.91 1281.15 479.614 1330.59 380.551C1380.37 280.794 1429.63 175.202 1555.71 124.073C1659.03 82.1136 1762.19 86.5596 1869.62 113.236C1921.28 126.018 1971.91 134.632 2014.68 164.504" stroke="#61E987" stroke-miterlimit="10"/>
<path d="M2019.47 169.228C1975.68 139.773 1924.19 130.742 1871.84 117.96C1833.35 108.512 1795.37 101.982 1757.74 99.203C1688.8 94.0623 1620.89 102.121 1553.31 129.63C1532.44 138.244 1513.46 148.248 1496.35 159.502C1409.28 217.022 1368.9 306.081 1325.97 390.277C1274.82 490.729 1194.07 620.497 1038.06 618.968C953.896 618.274 889.233 575.342 811.569 555.613C742.287 538.246 686.69 542.136 635.028 562.976C608.855 573.536 583.879 588.541 558.39 607.159C497.833 651.619 437.788 711.778 348.834 720.809C326.766 723.032 305.041 721.782 283.315 718.864C232.679 711.917 182.728 695.801 131.408 693.161C28.2548 687.603 -75.9248 743.039 -110.651 822.651" stroke="#61E987" stroke-miterlimit="10"/>
<path d="M2023.92 173.812C1979.1 144.774 1926.92 135.327 1873.72 122.544C1834.72 113.097 1796.06 106.428 1757.91 103.788C1687.94 98.786 1618.66 106.983 1550.75 134.91C1529.54 143.663 1510.55 153.805 1493.27 165.476C1405.34 224.247 1365.65 314.834 1321.52 400.002C1268.66 501.983 1182.61 629.944 1025.06 627.165C941.067 625.915 875.89 583.4 798.397 563.115C729.799 545.331 674.203 547.693 622.541 566.588C596.367 576.036 571.221 589.93 545.561 607.158C484.49 648.423 423.248 704.692 334.293 713.029C312.226 715.113 290.329 713.862 268.604 710.945C217.797 704.415 167.674 689.409 116.525 687.603C13.5431 684.13 -89.439 740.26 -123.652 820.149" stroke="#61E987" stroke-miterlimit="10"/>
<path d="M2028.37 178.397C1982.52 149.776 1929.66 140.05 1875.6 127.129C1836.09 117.681 1796.91 111.012 1758.08 108.373C1687.09 103.371 1616.61 111.846 1548.01 140.328C1526.63 149.22 1507.3 159.641 1489.85 171.45C1401.06 231.471 1362.06 323.726 1316.73 409.589C1261.99 513.098 1170.98 638.975 1011.89 635.363C927.894 633.556 862.376 591.458 785.054 570.479C717.14 552.139 661.715 553.39 610.053 570.201C583.879 578.676 558.561 591.319 532.901 607.158C471.146 645.227 408.878 697.468 319.752 705.109C297.685 706.915 275.788 705.665 253.892 703.025C202.914 696.773 152.62 683.018 101.642 682.185C-0.826538 680.517 -102.611 737.482 -136.482 817.649" stroke="#61E987" stroke-miterlimit="10"/>
<path d="M2032.81 182.843C1985.94 154.639 1932.23 144.496 1877.66 131.575C1837.63 122.127 1797.94 115.458 1758.42 112.819C1686.4 107.956 1614.73 116.709 1545.62 145.469C1524.06 154.5 1504.39 165.059 1486.77 177.147C1396.96 238.279 1358.81 332.201 1312.28 419.037C1255.83 523.935 1159.69 648.006 999.058 643.421C915.064 640.92 849.032 599.378 772.052 577.842C704.652 558.947 649.397 558.947 597.735 573.674C571.562 581.177 546.244 592.57 520.242 607.019C457.803 641.754 394.508 690.243 305.382 697.051C283.315 698.718 261.247 697.468 239.351 694.967C188.202 689.131 137.737 676.488 86.9304 676.627C-15.1964 676.766 -115.955 734.564 -149.142 815.009" stroke="#61E987" stroke-miterlimit="10"/>
<path d="M2037.43 187.428C1989.53 159.641 1935.13 149.081 1879.71 136.299C1839.17 126.851 1798.79 120.182 1758.77 117.543C1685.72 112.68 1612.67 121.711 1543.05 150.888C1521.15 160.058 1501.48 170.895 1483.52 183.26C1392.85 245.643 1355.39 341.093 1307.66 428.763C1249.33 535.189 1148.23 657.454 985.886 651.618C901.892 648.701 835.518 607.575 758.709 585.345C691.993 566.033 636.91 564.644 585.077 577.287C558.733 583.678 533.415 593.959 507.241 607.019C444.289 638.558 379.797 683.157 290.671 689.132C268.603 690.66 246.536 689.409 224.639 687.047C173.319 681.49 122.855 669.958 71.8768 671.07C-30.079 673.154 -129.469 731.785 -162.313 812.508" stroke="#61E987" stroke-miterlimit="10"/>
<path d="M2041.88 192.013C1992.96 164.642 1937.87 153.805 1881.59 140.884C1840.53 131.436 1799.65 124.767 1758.94 122.127C1684.86 117.404 1610.62 126.573 1540.31 156.167C1518.25 165.476 1498.23 176.452 1480.1 189.095C1388.41 252.729 1351.8 349.846 1302.7 438.21C1242.66 546.165 1136.25 666.623 972.543 659.677C888.549 656.203 821.833 615.494 745.195 592.57C679.164 572.841 624.08 570.062 572.418 580.621C546.074 586.04 520.585 595.071 494.241 606.741C430.433 635.085 365.085 675.793 275.959 681.073C253.721 682.323 231.824 681.073 209.757 678.85C158.266 673.709 107.63 663.289 56.823 665.373C-44.7906 669.402 -142.983 728.729 -175.314 809.729" stroke="#61E987" stroke-miterlimit="10"/>
<path d="M2046.33 196.598C1996.38 169.644 1940.44 158.39 1883.64 145.469C1842.08 136.021 1800.68 129.352 1759.28 126.712C1684.18 121.989 1608.74 131.436 1537.92 161.586C1515.68 171.033 1495.32 182.287 1477.02 195.07C1384.47 259.953 1348.55 358.599 1298.25 447.936C1236.33 557.28 1124.96 675.932 959.542 668.013C875.719 663.984 808.49 623.831 732.023 600.211C666.505 580.065 611.763 575.897 559.93 584.373C533.586 588.68 507.926 596.599 481.411 606.88C416.918 632.028 350.545 668.708 261.419 673.293C239.18 674.404 217.113 673.154 195.045 671.07C143.383 666.207 92.576 657.037 41.9403 660.093C-59.3312 665.929 -156.497 726.089 -188.315 807.367" stroke="#61E987" stroke-miterlimit="10"/>
<path d="M2050.78 201.044C1999.8 174.646 1943.18 162.836 1885.53 149.915C1843.44 140.467 1801.36 133.798 1759.45 131.158C1683.15 126.573 1606.52 136.299 1535.18 166.726C1512.6 176.313 1492.24 187.706 1473.6 200.905C1380.02 266.9 1344.96 367.213 1293.46 457.384C1229.83 568.256 1113.33 685.102 946.37 675.932C862.547 671.347 794.976 631.611 718.68 607.436C653.846 586.734 599.104 581.316 547.442 587.707C520.927 591.041 495.267 597.71 468.751 606.602C403.575 628.416 336.175 661.344 247.049 665.095C224.81 666.068 202.743 664.817 180.504 662.872C128.671 658.426 77.693 650.368 27.2284 654.258C-73.701 662.038 -169.669 722.893 -200.975 804.588" stroke="#61E987" stroke-miterlimit="10"/>
<path d="M2055.22 205.629C2003.22 179.648 1945.91 167.56 1887.41 154.5C1844.81 145.052 1802.22 138.383 1759.62 135.882C1682.3 131.297 1604.46 141.301 1532.44 172.145C1509.69 181.871 1488.99 193.541 1470.35 206.879C1375.92 274.125 1341.53 375.966 1288.85 467.109C1223.33 579.51 1101.87 694.55 933.369 684.269C849.546 679.128 781.461 639.948 705.508 614.939C641.358 593.82 586.616 586.873 534.954 591.319C508.439 593.542 482.608 599.1 455.921 606.603C389.89 625.22 321.634 654.258 232.508 657.315C210.27 658.009 188.031 656.898 165.792 655.092C113.788 650.924 62.6391 644.116 12.3455 648.979C-88.4128 658.704 -183.013 720.392 -213.805 802.227" stroke="#61E987" stroke-miterlimit="10"/>
<path d="M2059.84 210.214C2006.81 184.649 1948.65 172.145 1889.46 159.224C1846.35 149.776 1803.24 142.968 1760.13 140.606C1681.79 136.16 1602.75 146.303 1530.22 177.702C1507.3 187.567 1486.26 199.377 1467.44 212.993C1371.98 281.489 1338.45 384.997 1284.57 476.835C1217.34 590.625 1090.75 703.998 920.539 692.605C836.716 686.908 768.289 648.145 692.507 622.58C628.87 601.045 574.471 592.709 522.809 595.071C496.294 596.321 470.291 600.628 443.434 606.741C376.718 622.025 307.436 647.311 218.31 649.534C196.072 650.09 173.833 648.839 151.594 647.172C99.4189 643.421 48.27 637.586 -2.0236 643.56C-102.44 655.092 -196.013 717.614 -226.292 799.726" stroke="#61E987" stroke-miterlimit="10"/>
<path d="M2064.29 214.799C2010.23 189.651 1951.39 176.73 1891.51 163.809C1847.72 154.361 1804.1 147.553 1760.48 145.191C1681.1 140.745 1600.7 151.304 1527.65 182.982C1504.39 193.125 1483.35 205.073 1464.19 218.967C1367.88 288.714 1335.03 393.75 1279.95 486.561C1210.67 601.601 1078.95 713.307 907.195 700.663C823.372 694.55 754.604 656.203 678.992 629.805C616.04 607.853 561.64 598.127 509.978 598.405C483.292 598.544 457.29 601.74 430.261 606.464C362.69 618.412 292.553 639.809 203.427 641.337C181.188 641.615 158.778 640.503 136.54 638.975C84.1933 635.502 32.8733 630.917 -17.2493 637.725C-117.323 651.202 -209.699 714.418 -239.465 796.947" stroke="#61E987" stroke-miterlimit="10"/>
<path d="M2068.74 219.245C2013.65 194.514 1954.12 181.315 1893.39 168.255C1849.09 158.807 1804.95 151.999 1760.65 149.637C1680.25 145.33 1598.65 156.028 1524.92 188.123C1501.48 198.404 1480.1 210.492 1460.77 224.663C1363.6 295.522 1331.44 402.226 1274.99 495.869C1204.17 612.577 1067.31 722.615 894.023 708.722C810.372 702.053 741.09 664.262 665.649 637.169C603.381 614.8 549.153 603.685 497.319 601.879C470.633 600.906 444.289 602.851 417.26 606.325C348.834 614.939 277.841 632.584 188.715 633.279C166.477 633.418 144.067 632.306 121.657 630.917C69.1396 627.86 17.6486 624.387 -32.3029 632.167C-132.035 647.589 -223.213 711.639 -252.637 794.307" stroke="#61E987" stroke-miterlimit="10"/>
<path d="M2073.19 223.83C2017.08 199.516 1956.69 185.9 1895.28 172.84C1850.46 163.392 1805.81 156.584 1760.82 154.222C1679.39 149.915 1596.59 160.891 1522.35 193.542C1498.74 203.962 1477.02 216.327 1457.52 230.638C1359.33 302.747 1328.02 411.118 1270.37 505.595C1197.84 623.831 1055.85 732.063 881.023 717.058C797.371 709.833 727.576 672.598 652.478 644.811C590.723 622.025 536.665 609.521 485.003 605.63C458.317 603.685 431.802 604.38 404.773 606.464C335.491 611.744 263.643 625.637 174.517 625.637C152.108 625.637 129.869 624.387 107.288 623.275C54.5996 620.497 2.93743 618.274 -46.843 627.027C-146.404 644.255 -236.385 709.139 -265.124 792.084" stroke="#61E987" stroke-miterlimit="10"/>
<path d="M2077.63 228.415C2020.5 204.517 1959.43 190.485 1897.16 177.425C1851.83 167.838 1806.49 161.169 1760.99 158.807C1678.53 154.5 1594.37 165.754 1519.61 198.821C1495.84 209.38 1473.77 221.885 1454.1 236.473C1355.05 309.832 1324.43 419.732 1265.58 515.043C1191.17 634.807 1044.22 741.233 867.85 725.116C784.198 717.475 714.061 680.517 639.134 652.035C578.063 628.832 524.006 614.8 472.344 608.964C445.657 605.908 418.971 605.352 391.771 606.186C321.634 608.131 248.931 618.273 159.805 617.44C137.395 617.162 114.985 616.05 92.4046 614.939C39.545 612.438 -12.2882 611.465 -61.8975 621.052C-161.116 640.225 -249.9 705.804 -278.297 789.166" stroke="#61E987" stroke-miterlimit="10"/>
<path d="M2082.25 233C2024.09 209.658 1962.16 195.209 1899.38 182.149C1853.54 172.562 1807.69 165.893 1761.5 163.531C1678.02 159.363 1592.66 170.895 1517.22 204.24C1493.1 214.938 1471.03 227.72 1451.02 242.586C1350.94 317.196 1321.18 428.624 1261.13 524.769C1185.01 645.922 1032.93 750.681 855.02 733.314C771.369 725.116 700.889 688.715 626.133 659.538C565.576 635.918 511.861 620.496 460.198 612.577C433.341 608.548 406.655 606.742 379.284 606.186C308.291 604.658 234.733 611.188 145.436 609.52C123.026 609.104 100.616 607.992 78.0355 607.02C25.0049 604.935 -26.8283 604.935 -76.4376 615.634C-175.314 636.752 -262.9 703.025 -290.784 786.666" stroke="#61E987" stroke-miterlimit="10"/>
<path d="M2086.7 237.584C2027.51 214.66 1964.9 199.793 1901.26 186.733C1854.91 177.147 1808.55 170.478 1761.67 168.116C1677.17 163.948 1590.61 175.757 1514.65 209.519C1490.36 220.356 1467.95 233.277 1447.94 248.422C1347.01 324.143 1317.93 437.377 1256.68 534.355C1178.68 657.037 1021.47 760.128 842.019 741.511C758.368 732.897 687.546 696.912 612.961 666.901C553.088 642.865 499.373 626.054 447.711 616.05C420.853 610.91 393.996 607.853 366.454 606.047C294.606 601.045 220.192 603.824 130.895 601.462C108.485 600.906 85.9047 599.656 63.3239 598.961C10.1222 597.155 -41.8821 598.405 -91.3204 610.076C-190.026 633.001 -276.414 700.246 -303.785 784.026" stroke="#61E987" stroke-miterlimit="10"/>
<path d="M2091.15 242.03C2030.93 219.523 1967.64 204.239 1903.15 191.179C1856.27 181.593 1809.23 174.924 1761.84 172.562C1676.31 168.533 1588.38 180.481 1511.92 214.799C1487.45 225.775 1464.7 238.974 1444.52 254.257C1342.56 331.228 1314.33 445.991 1251.72 543.803C1172.01 668.013 1009.66 769.437 828.504 749.569C745.024 740.399 673.518 704.97 599.275 674.265C539.915 649.812 486.371 631.472 434.709 619.524C407.851 613.271 380.652 609.103 353.281 605.908C280.749 597.433 205.309 596.599 116.012 593.542C93.602 592.709 71.0212 591.597 48.2693 591.041C-5.10346 589.652 -57.2788 592.014 -106.546 604.518C-204.909 629.388 -290.101 697.329 -316.958 781.525" stroke="#61E987" stroke-miterlimit="10"/>
<path d="M2095.6 246.616C2034.35 224.525 1970.2 208.964 1905.03 195.765C1857.64 186.178 1810.09 179.37 1762.19 177.286C1675.63 173.257 1586.5 185.622 1509.52 220.218C1484.72 231.333 1461.96 244.671 1441.44 260.371C1338.63 338.592 1311.08 454.883 1247.28 553.668C1165.68 679.267 998.374 779.024 815.675 757.906C732.195 748.319 660.347 713.307 586.275 681.907C527.599 657.037 474.226 637.308 422.564 623.275C395.535 616.051 368.336 610.493 340.794 606.047C267.406 594.098 191.111 589.652 101.814 585.762C79.4041 584.79 56.6523 583.678 33.9004 583.261C-19.6434 582.15 -71.9898 585.762 -121.086 599.239C-219.107 626.054 -303.101 694.689 -329.616 779.163" stroke="#61E987" stroke-miterlimit="10"/>
<path d="M2100.21 251.201C2037.95 229.526 1973.11 213.549 1907.25 200.35C1859.35 190.763 1811.28 183.955 1762.7 181.871C1674.94 177.981 1584.62 190.485 1507.13 225.497C1482.15 236.751 1459.06 250.367 1438.36 266.206C1334.52 345.678 1307.83 463.636 1242.83 563.115C1159.35 690.243 986.742 788.333 802.674 765.964C719.193 755.822 646.832 721.365 573.103 689.132C515.111 663.845 461.738 642.588 410.076 626.61C383.047 618.274 355.677 611.466 327.964 605.769C253.721 590.347 176.57 582.289 87.2731 577.565C64.6923 576.314 42.1116 575.342 19.1886 574.925C-34.5263 574.23 -87.0437 578.954 -135.969 593.404C-233.648 622.164 -316.444 691.633 -342.446 776.384" stroke="#61E987" stroke-miterlimit="10"/>
<path d="M2104.66 255.785C2041.37 234.528 1975.85 218.133 1909.13 204.934C1860.72 195.348 1811.97 188.54 1762.87 186.456C1674.09 182.565 1582.57 195.348 1504.39 230.916C1479.24 242.308 1455.81 256.063 1434.94 272.18C1330.24 352.764 1304.24 472.389 1238.04 572.841C1152.85 701.497 975.28 797.92 789.502 774.3C706.021 763.741 633.318 729.562 559.93 696.773C502.452 671.07 449.421 648.423 397.759 630.5C370.73 621.052 343.189 612.994 315.305 606.047C240.378 587.012 162.2 575.342 72.9033 570.062C50.3225 568.673 27.7417 567.561 4.81881 567.422C-49.0672 567.005 -101.585 572.841 -150.51 588.263C-248.018 618.829 -329.617 689.131 -355.105 774.161" stroke="#61E987" stroke-miterlimit="10"/>
<path d="M2109.11 260.232C2044.79 239.391 1978.42 222.718 1911.01 209.519C1862.09 199.933 1812.82 193.125 1763.04 191.041C1673.23 187.289 1580.51 200.211 1501.82 236.195C1476.33 247.866 1452.9 261.76 1431.69 278.155C1326.14 359.989 1300.82 481.142 1233.42 582.428C1146.52 712.473 963.648 807.228 776.501 782.359C693.02 771.244 619.975 737.621 546.758 704.137C489.964 678.017 436.933 653.98 385.271 633.973C358.243 623.553 330.53 614.105 302.475 605.769C226.863 583.261 147.66 567.978 58.3627 561.865C35.7819 560.337 13.0301 559.225 -9.89286 559.225C-63.9499 559.225 -116.638 566.172 -165.392 582.567C-262.729 614.939 -343.131 685.936 -368.106 771.244" stroke="#61E987" stroke-miterlimit="10"/>
<path d="M2113.56 264.817C2048.21 244.532 1981.15 227.303 1913.07 214.104C1863.63 204.518 1813.85 197.71 1763.38 195.626C1672.55 191.874 1578.46 205.212 1499.26 241.475C1473.6 253.285 1449.82 267.317 1428.44 283.99C1321.86 367.075 1297.4 489.895 1228.63 592.014C1140.02 723.588 952.186 816.676 763.328 790.556C680.019 779.024 606.289 745.818 533.415 711.501C477.134 684.964 424.445 659.399 372.612 637.447C345.412 625.915 317.7 615.356 289.645 605.63C213.349 579.51 133.119 560.753 43.822 553.807C21.2412 552 -1.51071 551.028 -24.6047 551.167C-78.8328 551.445 -131.692 559.642 -180.275 577.009C-277.099 611.327 -356.474 683.157 -380.937 768.743" stroke="#61E987" stroke-miterlimit="10"/>
<path d="M2118.01 269.402C2051.63 249.534 1983.89 231.888 1914.95 218.689C1865 209.103 1814.53 202.295 1763.56 200.211C1671.69 196.598 1576.41 210.075 1496.52 246.755C1470.69 258.703 1446.57 273.014 1425.19 289.825C1317.76 374.16 1293.98 498.51 1224.01 601.462C1133.69 734.564 940.725 826.124 750.328 798.614C667.018 786.527 592.946 753.877 520.243 718.864C464.475 691.91 412.129 664.818 360.295 640.92C333.096 628.277 305.212 616.467 276.986 605.491C200.006 575.898 118.749 553.529 29.4524 545.748C6.87158 543.803 -16.0514 542.692 -39.1454 542.969C-93.5446 543.664 -146.575 552.973 -194.987 571.174C-291.811 607.575 -369.817 680.24 -393.767 766.103" stroke="#61E987" stroke-miterlimit="10"/>
<path d="M2122.62 273.986C2055.22 254.535 1986.63 236.612 1917 223.274C1866.54 213.688 1815.56 206.88 1763.9 204.796C1671.01 201.183 1574.53 214.938 1494.13 252.173C1467.95 264.261 1443.83 278.71 1422.11 295.8C1313.65 381.246 1290.73 507.263 1219.56 611.188C1127.19 745.679 929.092 835.85 737.326 806.812C654.017 794.446 579.432 762.213 507.071 726.228C451.987 698.996 399.641 670.375 347.807 644.394C320.608 630.639 292.724 617.579 264.156 605.352C186.492 572.146 104.209 546.165 14.9118 537.829C-7.66905 535.745 -30.592 534.633 -53.857 535.05C-108.427 536.023 -161.629 546.582 -210.041 565.755C-306.351 603.963 -383.16 677.322 -406.768 763.463" stroke="#61E987" stroke-miterlimit="10"/>
<path d="M2127.07 278.432C2058.64 259.398 1989.36 241.058 1918.88 227.72C1867.91 218.133 1816.41 211.325 1764.07 209.241C1670.15 205.768 1572.3 219.8 1491.39 257.314C1465.04 269.54 1440.58 284.267 1418.68 301.635C1309.37 388.332 1287.13 516.015 1214.77 620.635C1120.69 756.655 917.459 845.019 723.983 814.87C640.673 801.949 565.575 770.271 493.556 733.591C438.986 705.943 386.982 675.932 335.148 647.867C307.949 633.139 279.894 618.69 251.155 605.213C172.806 568.534 89.4967 538.94 0.199902 529.77C-22.3809 527.408 -45.4749 526.435 -68.5689 526.991C-123.31 528.381 -176.512 539.912 -224.924 560.197C-320.892 600.35 -396.675 674.543 -419.598 760.962" stroke="#61E987" stroke-miterlimit="10"/>
<path d="M2131.52 283.017C2011.77 250.923 1890.32 218.55 1764.41 213.965C1638.51 209.381 1505.42 235.918 1415.61 307.609C1305.27 395.557 1283.88 524.769 1210.33 630.222C1114.36 767.631 906.169 854.328 711.153 823.067C565.404 799.587 443.776 721.504 322.832 651.341C201.887 581.177 65.3763 514.348 -83.1096 518.933C-247.163 524.213 -398.557 627.999 -432.428 758.323" stroke="#61E987" stroke-miterlimit="10"/>
<path d="M-423.19 756.655C-390.003 635.918 -254.69 539.635 -103.809 524.629C-93.8871 523.657 -83.9652 522.962 -74.0433 522.823C68.2841 519.072 199.663 580.482 317.186 646.478C321.292 648.701 325.226 651.062 329.332 653.285C449.934 721.782 571.733 797.503 716.114 818.899C909.419 847.242 1113.16 759.017 1210.67 623.97C1223.16 606.602 1234.45 588.541 1244.88 570.201C1296.54 479.475 1329.73 381.524 1421.93 311.499C1467.95 276.626 1524.57 253.006 1585.65 238.696C1644.66 224.941 1707.96 219.939 1769.37 222.162C1894.59 226.469 2015.54 256.758 2133.57 285.24" stroke="#61E987" stroke-miterlimit="10"/>
<path d="M-414.124 754.988C-379.569 635.78 -244.255 542.136 -94.5715 528.242C-84.8207 527.269 -74.8988 526.714 -64.9769 526.575C76.1531 523.379 206.506 583.956 323.687 648.423C327.792 650.646 331.727 652.869 335.832 655.092C456.092 722.06 577.892 795.419 721.074 814.592C912.84 840.018 1112.13 750.125 1211.01 617.579C1223.84 600.489 1235.13 582.844 1245.91 564.921C1299.28 476.418 1335.37 382.358 1428.26 315.39C1474.62 282.045 1531.08 259.537 1591.8 246.06C1650.48 233 1713.26 228.415 1774.5 230.36C1899.04 234.389 2019.3 262.593 2135.62 287.602" stroke="#61E987" stroke-miterlimit="10"/>
<path d="M-404.886 753.32C-368.962 635.64 -233.477 544.775 -85.1621 531.854C-75.4113 531.02 -65.6605 530.465 -55.9097 530.326C84.0228 527.825 213.349 587.429 330.188 650.368C334.293 652.591 338.228 654.675 342.333 656.898C462.422 722.337 584.222 793.334 725.865 810.285C916.091 832.793 1110.94 741.233 1211.18 611.187C1224.18 594.376 1235.81 577.148 1246.93 559.642C1302.02 473.222 1341.02 383.052 1434.42 319.141C1480.95 287.324 1537.41 266.067 1597.79 253.284C1656.13 241.058 1718.57 236.612 1779.29 238.418C1903.15 242.169 2022.89 268.429 2137.51 289.686" stroke="#61E987" stroke-miterlimit="10"/>
<path d="M-395.819 751.653C-358.527 635.502 -223.042 547.276 -75.7536 535.328C-66.1739 534.494 -56.4231 534.077 -46.6723 533.938C92.0628 532.132 220.363 590.764 336.859 652.313C340.965 654.397 344.899 656.62 348.834 658.704C468.581 722.476 590.38 791.251 730.826 805.978C919.341 825.429 1109.74 732.341 1211.69 604.658C1224.87 588.263 1236.84 571.313 1248.3 554.362C1305.1 470.166 1347.01 383.747 1440.92 323.031C1487.8 292.743 1544.08 272.597 1603.95 260.648C1661.94 249.116 1723.87 245.087 1784.25 246.755C1907.42 250.228 2026.48 274.403 2139.39 292.187" stroke="#61E987" stroke-miterlimit="10"/>
<path d="M-386.582 749.986C-347.921 635.363 -212.436 549.777 -66.3453 538.94C-56.7655 538.245 -47.1858 537.829 -37.6061 537.69C99.9315 536.578 227.205 594.237 343.359 654.258C347.294 656.342 351.4 658.426 355.334 660.51C474.739 722.754 596.709 789.028 735.786 801.671C922.762 818.204 1108.54 723.449 1212.04 598.266C1225.38 582.15 1237.7 565.616 1249.5 549.082C1308 467.109 1352.82 384.58 1447.25 326.782C1494.3 298.022 1550.58 278.988 1610.11 267.873C1667.76 257.036 1729.34 253.285 1789.39 254.813C1911.87 258.008 2030.42 280.099 2141.61 294.41" stroke="#61E987" stroke-miterlimit="10"/>
<path d="M-377.344 748.319C-337.314 635.224 -201.829 552.417 -56.9359 542.552C-47.5272 541.858 -37.9475 541.58 -28.3678 541.58C107.972 541.163 234.391 597.849 350.032 656.481C353.966 658.565 358.072 660.51 362.006 662.594C481.069 723.171 603.21 787.221 740.919 797.642C926.355 811.257 1107.69 714.835 1212.55 592.153C1226.06 576.314 1238.55 560.197 1250.7 544.081C1310.91 464.191 1358.64 385.553 1453.58 330.811C1500.97 303.58 1556.91 285.796 1616.27 275.375C1673.57 265.233 1734.82 261.76 1794.35 263.288C1916.32 266.206 2034.01 286.213 2143.49 296.911" stroke="#61E987" stroke-miterlimit="10"/>
<path d="M-368.277 746.651C-326.879 635.085 -191.394 554.918 -47.5273 546.026C-38.1187 545.47 -28.71 545.192 -19.1303 545.192C116.012 545.47 241.404 601.323 356.703 658.287C360.638 660.232 364.743 662.177 368.678 664.262C487.569 723.31 609.54 784.998 746.051 793.196C929.777 803.755 1106.66 705.804 1213.06 585.484C1226.75 569.923 1239.58 554.223 1252.07 538.523C1313.99 460.857 1364.63 385.97 1460.08 334.424C1507.81 308.721 1563.58 292.048 1622.43 282.322C1679.39 272.875 1740.12 269.818 1799.48 271.068C1920.77 273.569 2037.78 291.631 2145.72 298.856" stroke="#61E987" stroke-miterlimit="10"/>
<path d="M-359.04 744.985C-316.273 634.946 -180.618 557.558 -38.119 549.638C-28.7103 549.083 -19.4727 548.944 -10.064 548.944C123.881 549.916 248.247 604.797 363.203 660.233C367.138 662.178 371.244 664.123 375.178 666.068C493.727 723.449 615.869 782.776 750.84 788.889C933.026 796.53 1105.46 696.912 1213.23 579.093C1227.09 563.949 1240.26 548.527 1253.09 533.244C1316.9 457.801 1370.27 386.804 1466.41 338.176C1514.31 314 1570.08 298.578 1628.58 289.547C1685.21 280.933 1745.59 278.016 1804.44 279.127C1925.04 281.35 2041.54 297.328 2147.6 300.94" stroke="#61E987" stroke-miterlimit="10"/>
<path d="M-349.803 743.317C-305.668 634.668 -170.012 560.059 -28.7106 553.112C-19.473 552.695 -10.2354 552.417 -0.826736 552.556C131.921 554.223 255.26 608.131 369.875 662.178C373.809 663.984 377.744 665.929 381.849 667.735C500.056 723.588 622.369 780.552 755.972 784.443C936.619 789.167 1104.43 687.881 1213.75 572.563C1227.77 557.697 1241.29 542.692 1254.46 527.964C1319.98 454.605 1376.26 387.498 1472.91 342.066C1521.15 319.419 1576.75 305.108 1634.91 296.911C1691.19 288.992 1751.07 286.491 1809.57 287.463C1929.49 289.408 2045.3 303.441 2149.82 303.441" stroke="#61E987" stroke-miterlimit="10"/>
<path d="M-340.736 741.511C-295.233 634.529 -159.577 562.559 -19.3021 556.585C-10.0645 556.168 -0.99793 556.029 8.23967 556.307C139.79 558.53 262.103 611.604 376.375 664.123C380.31 665.929 384.244 667.735 388.179 669.541C506.044 723.727 628.356 778.607 760.762 780.135C939.698 782.219 1103.07 678.989 1213.92 566.172C1228.29 551.583 1241.8 536.995 1255.49 522.684C1322.72 451.548 1381.73 388.193 1479.07 345.817C1527.48 324.698 1582.91 311.638 1640.73 304.135C1696.67 296.911 1756.2 294.688 1814.36 295.521C1933.6 297.189 2048.89 309.137 2151.53 305.525" stroke="#61E987" stroke-miterlimit="10"/>
<path d="M-331.498 739.844C-284.626 634.39 -148.97 565.06 -9.89274 560.198C-0.826205 559.92 8.41139 559.781 17.4779 560.059C147.831 562.976 269.117 615.078 383.047 666.207C386.982 668.013 390.916 669.68 394.851 671.487C512.374 724.144 634.857 776.662 765.895 775.968C943.291 774.995 1102.21 670.236 1214.43 559.781C1228.97 545.609 1242.83 531.299 1256.68 517.405C1325.62 448.492 1387.55 389.027 1485.4 349.707C1534.15 330.117 1589.41 318.169 1646.89 311.5C1702.48 304.97 1761.67 303.163 1819.32 303.858C1937.87 305.247 2052.49 315.112 2153.59 308.026" stroke="#61E987" stroke-miterlimit="10"/>
<path d="M-322.261 738.176C-274.02 634.251 -138.364 567.7 -0.484334 563.81C8.5822 563.532 17.6487 563.532 26.7153 563.81C155.871 567.422 276.13 618.69 389.719 668.152C393.653 669.819 397.588 671.625 401.522 673.293C518.874 724.422 641.358 774.578 770.855 771.66C946.712 767.77 1101.01 661.344 1214.77 553.389C1229.48 539.496 1243.68 525.602 1257.88 512.125C1328.53 445.296 1393.37 389.721 1491.73 353.458C1540.83 335.397 1595.91 324.698 1653.05 318.724C1708.47 313.028 1766.98 311.36 1824.45 311.916C1942.32 313.028 2056.42 320.808 2155.64 310.11" stroke="#61E987" stroke-miterlimit="10"/>
<path d="M-313.194 736.509C-263.585 634.112 -127.758 570.201 8.92422 567.284C17.8197 567.145 26.8862 567.145 35.7817 567.422C163.74 571.73 283.144 622.025 396.219 669.958C400.154 671.626 404.088 673.293 408.023 674.96C525.032 724.422 647.516 772.216 775.816 767.215C949.962 760.407 1099.82 652.313 1215.12 546.86C1230 533.244 1244.54 519.767 1259.08 506.707C1331.44 442.101 1399.18 390.277 1498.06 357.21C1547.33 340.676 1602.41 331.09 1659.03 325.949C1714.12 320.947 1772.28 319.697 1829.24 320.114C1946.43 320.947 2059.84 326.644 2157.52 312.472" stroke="#61E987" stroke-miterlimit="10"/>
<path d="M-303.957 734.842C-252.979 633.973 -117.152 572.702 18.3326 570.896C27.228 570.757 36.1235 570.896 45.019 571.173C171.779 576.175 290.158 625.498 402.89 672.042C406.825 673.709 410.76 675.238 414.694 676.905C531.362 724.838 654.016 770.271 780.948 763.046C953.554 753.321 1098.96 643.421 1215.8 540.607C1230.85 527.269 1245.56 514.209 1260.62 501.705C1334.69 439.322 1405.34 391.249 1504.9 361.239C1554.51 346.234 1609.42 337.897 1665.7 333.312C1720.45 329.005 1778.1 328.033 1834.72 328.311C1951.22 328.866 2064.12 332.479 2160.09 314.695" stroke="#61E987" stroke-miterlimit="10"/>
<path d="M-294.719 733.175C-242.372 633.834 -106.545 575.342 27.7419 574.369C36.4663 574.369 45.3618 574.508 54.0862 574.925C179.649 580.621 297.001 628.972 409.392 673.987C413.326 675.516 417.261 677.044 421.024 678.711C537.35 724.977 660.175 768.187 785.738 758.739C956.805 745.957 1097.59 634.529 1215.97 534.077C1231.2 521.156 1246.25 508.374 1261.47 496.286C1337.26 435.987 1410.82 391.944 1510.89 364.99C1560.84 351.513 1615.41 344.289 1671.52 340.537C1725.92 336.925 1783.23 336.23 1839.51 336.369C1955.32 336.647 2067.54 338.314 2161.8 316.918" stroke="#61E987" stroke-miterlimit="10"/>
<path d="M-285.652 731.507C-231.937 633.695 -96.1105 577.843 37.1504 577.981C45.8748 577.981 54.5992 578.259 63.3236 578.676C187.689 585.067 304.014 632.445 416.063 676.071C419.998 677.6 423.761 679.128 427.696 680.517C543.85 725.255 666.505 765.964 790.87 754.432C960.226 738.732 1096.57 625.637 1216.48 527.686C1231.88 515.043 1247.28 502.677 1262.84 491.007C1340.34 432.931 1416.8 392.639 1517.39 368.742C1567.51 356.793 1622.08 350.68 1677.68 347.762C1731.74 344.983 1788.7 344.566 1844.47 344.566C1959.6 344.566 2071.13 344.15 2163.85 319.28" stroke="#61E987" stroke-miterlimit="10"/>
<path d="M-276.415 729.84C-221.161 633.556 -85.3336 580.343 46.5589 581.455C55.1122 581.594 63.8366 581.872 72.3899 582.288C195.558 589.374 310.857 635.779 422.563 677.877C426.498 679.267 430.261 680.795 434.196 682.184C550.008 725.255 672.834 763.741 795.66 749.986C963.476 731.229 1095.37 616.606 1216.65 521.156C1232.22 508.79 1247.96 496.842 1263.87 485.588C1343.07 429.596 1422.45 393.194 1523.55 372.493C1574.01 362.072 1628.41 357.21 1683.67 354.987C1737.38 352.903 1793.83 352.764 1849.26 352.625C1963.87 352.347 2074.73 349.846 2165.56 321.364" stroke="#61E987" stroke-miterlimit="10"/>
<path d="M-267.178 728.173C-210.555 633.418 -74.7277 582.983 55.9672 585.067C64.5205 585.206 73.0739 585.484 81.6272 586.04C203.769 593.821 317.87 639.392 429.235 679.823C433.169 681.212 436.933 682.602 440.867 683.991C556.337 725.533 679.334 761.657 800.792 745.679C967.068 724.005 1094.34 607.714 1217.17 514.765C1233.08 502.817 1248.82 491.146 1265.24 480.309C1346.15 426.54 1428.44 394.028 1530.05 376.244C1580.68 367.352 1635.08 363.601 1690 362.212C1743.37 360.822 1799.48 361.1 1854.56 360.822C1968.49 360.128 2078.66 355.682 2167.96 323.726" stroke="#61E987" stroke-miterlimit="10"/>
<path d="M-258.11 726.506C-200.119 633.279 -64.2918 585.484 65.3767 588.68C73.9301 588.819 82.3123 589.236 90.8656 589.93C211.81 598.266 324.885 643.004 435.907 682.046C439.842 683.435 443.605 684.686 447.54 686.075C562.668 725.95 685.664 759.712 805.924 741.65C970.49 716.919 1093.32 599.1 1217.68 508.513C1233.76 496.842 1249.84 485.588 1266.44 475.307C1349.06 423.761 1434.25 395.001 1536.38 380.274C1587.36 372.91 1641.41 370.409 1695.98 369.714C1749.01 369.02 1804.61 369.575 1859.35 369.159C1972.6 368.186 2082.25 361.656 2169.67 326.088" stroke="#61E987" stroke-miterlimit="10"/>
<path d="M-248.873 724.839C-189.513 633.14 -53.686 588.124 74.7851 592.153C83.1673 592.431 91.5496 592.848 99.9319 593.543C219.679 602.574 331.727 646.339 442.407 683.852C446.171 685.103 450.105 686.492 453.869 687.742C568.655 726.089 691.823 757.211 810.714 737.343C973.74 709.417 1092.12 590.208 1217.85 502.122C1234.1 490.729 1250.53 479.892 1267.46 470.027C1351.8 420.565 1439.9 395.696 1542.71 384.164C1594.03 378.328 1647.91 376.939 1702.14 377.078C1754.83 377.078 1810.09 378.051 1864.48 377.495C1977.05 376.244 2086.02 367.63 2171.89 328.589" stroke="#61E987" stroke-miterlimit="10"/>
<path d="M-239.807 723.171C-179.078 633.001 -43.2511 590.625 84.0226 595.765C92.4048 596.043 100.616 596.599 108.998 597.294C227.548 607.019 338.741 649.812 448.908 685.797C452.671 687.047 456.606 688.298 460.369 689.548C574.984 726.367 697.981 755.127 815.504 733.036C976.82 702.192 1090.75 581.316 1218.02 495.73C1234.45 484.754 1251.21 474.195 1268.49 464.747C1354.53 417.509 1445.54 396.529 1548.87 387.915C1600.36 383.608 1654.24 383.469 1708.13 384.164C1760.48 384.997 1815.39 386.109 1869.27 385.414C1981.15 383.886 2089.61 373.326 2173.6 330.534" stroke="#61E987" stroke-miterlimit="10"/>
<path d="M-230.569 721.504C-168.472 632.862 -32.4741 593.264 93.602 599.378C101.813 599.794 110.024 600.35 118.236 601.045C235.587 611.465 345.754 653.285 455.579 687.881C459.342 689.131 463.277 690.243 467.041 691.493C581.313 726.644 704.481 753.181 820.635 728.867C980.412 695.106 1089.89 572.563 1218.54 489.339C1235.13 478.641 1252.07 468.499 1269.86 459.468C1357.61 414.452 1451.53 397.224 1555.37 391.805C1607.2 389.165 1660.91 389.999 1714.29 391.527C1766.29 393.055 1820.69 394.584 1874.23 393.611C1985.43 391.805 2093.2 379.162 2175.65 332.896" stroke="#61E987" stroke-miterlimit="10"/>
<path d="M-221.331 719.698C-157.865 632.584 -21.8673 595.626 103.011 602.712C111.223 603.129 119.263 603.824 127.474 604.518C243.628 615.633 352.769 656.481 462.251 689.548C466.015 690.66 469.778 691.771 473.713 693.022C587.643 726.645 710.811 750.681 825.768 724.283C983.834 687.464 1088.87 563.393 1219.05 482.67C1235.81 472.25 1253.09 462.663 1271.05 453.91C1360.69 410.979 1457.35 397.641 1561.7 395.279C1613.87 394.167 1667.25 396.251 1720.45 398.474C1772.11 400.697 1826.17 402.503 1879.37 401.531C1989.88 399.447 2097.14 384.719 2177.71 334.841" stroke="#61E987" stroke-miterlimit="10"/>
<path d="M-212.265 718.03C-147.43 632.445 -11.4324 598.127 112.249 606.325C120.289 606.88 128.329 607.575 136.54 608.409C251.497 620.218 359.611 660.232 468.752 691.771C472.515 692.883 476.279 693.994 480.213 694.967C593.801 726.922 717.141 748.735 830.729 720.114C987.255 680.378 1087.67 554.64 1219.56 476.418C1236.5 466.276 1254.12 457.106 1272.42 448.908C1363.77 408.2 1463.33 398.752 1568.2 399.447C1620.54 399.863 1673.92 403.059 1726.78 406.116C1778.1 409.033 1831.64 411.117 1884.5 410.006C1994.32 407.644 2100.9 390.832 2179.93 337.48" stroke="#61E987" stroke-miterlimit="10"/>
<path d="M-203.027 716.363C-136.825 632.306 -0.82655 600.767 121.828 609.798C129.868 610.354 137.909 611.188 145.778 612.021C259.537 624.526 366.625 663.567 475.594 693.578C479.358 694.55 483.121 695.662 486.885 696.634C600.302 727.062 723.641 746.513 835.689 715.669C990.676 673.015 1086.64 545.609 1219.91 469.888C1237.01 460.163 1254.97 451.271 1273.62 443.49C1366.68 405.004 1469.15 399.308 1574.53 403.059C1627.21 405.004 1680.42 409.451 1732.76 413.202C1783.74 416.953 1836.94 419.315 1889.46 418.065C1998.6 415.425 2104.66 396.529 2181.81 339.565" stroke="#61E987" stroke-miterlimit="10"/>
<path d="M-193.79 714.696C-126.219 632.167 9.95034 603.268 131.237 613.41C252.523 623.553 366.111 665.095 482.094 695.522C598.249 726.089 726.206 745.54 840.65 711.361C1013.77 659.954 1108.03 502.26 1274.82 438.21C1416.8 383.747 1582.74 406.81 1738.92 420.426C1895.1 434.042 2071.99 431.263 2183.87 341.788" stroke="#61E987" stroke-miterlimit="10"/>
</g>
<path d="M1593.86 808.34C1595.75 808.34 1597.28 807.096 1597.28 805.561C1597.28 804.027 1595.75 802.783 1593.86 802.783C1591.97 802.783 1590.44 804.027 1590.44 805.561C1590.44 807.096 1591.97 808.34 1593.86 808.34Z" fill="#61E987"/>
<path d="M1554.51 808.34C1556.4 808.34 1557.93 807.096 1557.93 805.561C1557.93 804.027 1556.4 802.783 1554.51 802.783C1552.62 802.783 1551.09 804.027 1551.09 805.561C1551.09 807.096 1552.62 808.34 1554.51 808.34Z" fill="#61E987"/>
<path d="M1515.17 808.34C1517.06 808.34 1518.59 807.096 1518.59 805.561C1518.59 804.027 1517.06 802.783 1515.17 802.783C1513.28 802.783 1511.75 804.027 1511.75 805.561C1511.75 807.096 1513.28 808.34 1515.17 808.34Z" fill="#61E987"/>
<path d="M1475.82 808.34C1477.71 808.34 1479.24 807.096 1479.24 805.561C1479.24 804.027 1477.71 802.783 1475.82 802.783C1473.93 802.783 1472.4 804.027 1472.4 805.561C1472.4 807.096 1473.93 808.34 1475.82 808.34Z" fill="#61E987"/>
<path d="M1436.48 808.34C1438.37 808.34 1439.9 807.096 1439.9 805.561C1439.9 804.027 1438.37 802.783 1436.48 802.783C1434.59 802.783 1433.05 804.027 1433.05 805.561C1433.05 807.096 1434.59 808.34 1436.48 808.34Z" fill="#61E987"/>
<path d="M1593.86 773.606C1595.75 773.606 1597.28 772.362 1597.28 770.827C1597.28 769.292 1595.75 768.048 1593.86 768.048C1591.97 768.048 1590.44 769.292 1590.44 770.827C1590.44 772.362 1591.97 773.606 1593.86 773.606Z" fill="#61E987"/>
<path d="M1554.51 773.606C1556.4 773.606 1557.93 772.362 1557.93 770.827C1557.93 769.292 1556.4 768.048 1554.51 768.048C1552.62 768.048 1551.09 769.292 1551.09 770.827C1551.09 772.362 1552.62 773.606 1554.51 773.606Z" fill="#61E987"/>
<path d="M1515.17 773.606C1517.06 773.606 1518.59 772.362 1518.59 770.827C1518.59 769.292 1517.06 768.048 1515.17 768.048C1513.28 768.048 1511.75 769.292 1511.75 770.827C1511.75 772.362 1513.28 773.606 1515.17 773.606Z" fill="#61E987"/>
<path d="M1475.82 773.606C1477.71 773.606 1479.24 772.362 1479.24 770.827C1479.24 769.292 1477.71 768.048 1475.82 768.048C1473.93 768.048 1472.4 769.292 1472.4 770.827C1472.4 772.362 1473.93 773.606 1475.82 773.606Z" fill="#61E987"/>
<path d="M1436.48 773.606C1438.37 773.606 1439.9 772.362 1439.9 770.827C1439.9 769.292 1438.37 768.048 1436.48 768.048C1434.59 768.048 1433.05 769.292 1433.05 770.827C1433.05 772.362 1434.59 773.606 1436.48 773.606Z" fill="#61E987"/>
<path d="M1593.86 738.871C1595.75 738.871 1597.28 737.627 1597.28 736.093C1597.28 734.558 1595.75 733.314 1593.86 733.314C1591.97 733.314 1590.44 734.558 1590.44 736.093C1590.44 737.627 1591.97 738.871 1593.86 738.871Z" fill="#61E987"/>
<path d="M1554.51 738.871C1556.4 738.871 1557.93 737.627 1557.93 736.093C1557.93 734.558 1556.4 733.314 1554.51 733.314C1552.62 733.314 1551.09 734.558 1551.09 736.093C1551.09 737.627 1552.62 738.871 1554.51 738.871Z" fill="#61E987"/>
<path d="M1515.17 738.871C1517.06 738.871 1518.59 737.627 1518.59 736.093C1518.59 734.558 1517.06 733.314 1515.17 733.314C1513.28 733.314 1511.75 734.558 1511.75 736.093C1511.75 737.627 1513.28 738.871 1515.17 738.871Z" fill="#61E987"/>
<path d="M1475.82 738.871C1477.71 738.871 1479.24 737.627 1479.24 736.093C1479.24 734.558 1477.71 733.314 1475.82 733.314C1473.93 733.314 1472.4 734.558 1472.4 736.093C1472.4 737.627 1473.93 738.871 1475.82 738.871Z" fill="#61E987"/>
<path d="M1436.48 738.871C1438.37 738.871 1439.9 737.627 1439.9 736.093C1439.9 734.558 1438.37 733.314 1436.48 733.314C1434.59 733.314 1433.05 734.558 1433.05 736.093C1433.05 737.627 1434.59 738.871 1436.48 738.871Z" fill="#61E987"/>
<path d="M1593.86 704.137C1595.75 704.137 1597.28 702.893 1597.28 701.358C1597.28 699.824 1595.75 698.58 1593.86 698.58C1591.97 698.58 1590.44 699.824 1590.44 701.358C1590.44 702.893 1591.97 704.137 1593.86 704.137Z" fill="#61E987"/>
<path d="M1554.51 704.137C1556.4 704.137 1557.93 702.893 1557.93 701.358C1557.93 699.824 1556.4 698.58 1554.51 698.58C1552.62 698.58 1551.09 699.824 1551.09 701.358C1551.09 702.893 1552.62 704.137 1554.51 704.137Z" fill="#61E987"/>
<path d="M1515.17 704.137C1517.06 704.137 1518.59 702.893 1518.59 701.358C1518.59 699.824 1517.06 698.58 1515.17 698.58C1513.28 698.58 1511.75 699.824 1511.75 701.358C1511.75 702.893 1513.28 704.137 1515.17 704.137Z" fill="#61E987"/>
<path d="M1475.82 704.137C1477.71 704.137 1479.24 702.893 1479.24 701.358C1479.24 699.824 1477.71 698.58 1475.82 698.58C1473.93 698.58 1472.4 699.824 1472.4 701.358C1472.4 702.893 1473.93 704.137 1475.82 704.137Z" fill="#61E987"/>
<path d="M1436.48 704.137C1438.37 704.137 1439.9 702.893 1439.9 701.358C1439.9 699.824 1438.37 698.58 1436.48 698.58C1434.59 698.58 1433.05 699.824 1433.05 701.358C1433.05 702.893 1434.59 704.137 1436.48 704.137Z" fill="#61E987"/>
<path d="M1593.86 669.403C1595.75 669.403 1597.28 668.159 1597.28 666.624C1597.28 665.089 1595.75 663.845 1593.86 663.845C1591.97 663.845 1590.44 665.089 1590.44 666.624C1590.44 668.159 1591.97 669.403 1593.86 669.403Z" fill="#61E987"/>
<path d="M1554.51 669.403C1556.4 669.403 1557.93 668.159 1557.93 666.624C1557.93 665.089 1556.4 663.845 1554.51 663.845C1552.62 663.845 1551.09 665.089 1551.09 666.624C1551.09 668.159 1552.62 669.403 1554.51 669.403Z" fill="#61E987"/>
<path d="M1515.17 669.403C1517.06 669.403 1518.59 668.159 1518.59 666.624C1518.59 665.089 1517.06 663.845 1515.17 663.845C1513.28 663.845 1511.75 665.089 1511.75 666.624C1511.75 668.159 1513.28 669.403 1515.17 669.403Z" fill="#61E987"/>
<path d="M1475.82 669.403C1477.71 669.403 1479.24 668.159 1479.24 666.624C1479.24 665.089 1477.71 663.845 1475.82 663.845C1473.93 663.845 1472.4 665.089 1472.4 666.624C1472.4 668.159 1473.93 669.403 1475.82 669.403Z" fill="#61E987"/>
<path d="M1436.48 669.403C1438.37 669.403 1439.9 668.159 1439.9 666.624C1439.9 665.089 1438.37 663.845 1436.48 663.845C1434.59 663.845 1433.05 665.089 1433.05 666.624C1433.05 668.159 1434.59 669.403 1436.48 669.403Z" fill="#61E987"/>
<path d="M1593.86 634.668C1595.75 634.668 1597.28 633.424 1597.28 631.89C1597.28 630.355 1595.75 629.111 1593.86 629.111C1591.97 629.111 1590.44 630.355 1590.44 631.89C1590.44 633.424 1591.97 634.668 1593.86 634.668Z" fill="#61E987"/>
<path d="M1554.51 634.668C1556.4 634.668 1557.93 633.424 1557.93 631.89C1557.93 630.355 1556.4 629.111 1554.51 629.111C1552.62 629.111 1551.09 630.355 1551.09 631.89C1551.09 633.424 1552.62 634.668 1554.51 634.668Z" fill="#61E987"/>
<path d="M1515.17 634.668C1517.06 634.668 1518.59 633.424 1518.59 631.89C1518.59 630.355 1517.06 629.111 1515.17 629.111C1513.28 629.111 1511.75 630.355 1511.75 631.89C1511.75 633.424 1513.28 634.668 1515.17 634.668Z" fill="#61E987"/>
<path d="M1475.82 634.668C1477.71 634.668 1479.24 633.424 1479.24 631.89C1479.24 630.355 1477.71 629.111 1475.82 629.111C1473.93 629.111 1472.4 630.355 1472.4 631.89C1472.4 633.424 1473.93 634.668 1475.82 634.668Z" fill="#61E987"/>
<path d="M1436.48 634.668C1438.37 634.668 1439.9 633.424 1439.9 631.89C1439.9 630.355 1438.37 629.111 1436.48 629.111C1434.59 629.111 1433.05 630.355 1433.05 631.89C1433.05 633.424 1434.59 634.668 1436.48 634.668Z" fill="#61E987"/>
<path d="M1593.86 599.934C1595.75 599.934 1597.28 598.69 1597.28 597.155C1597.28 595.621 1595.75 594.376 1593.86 594.376C1591.97 594.376 1590.44 595.621 1590.44 597.155C1590.44 598.69 1591.97 599.934 1593.86 599.934Z" fill="#61E987"/>
<path d="M1554.51 599.934C1556.4 599.934 1557.93 598.69 1557.93 597.155C1557.93 595.621 1556.4 594.376 1554.51 594.376C1552.62 594.376 1551.09 595.621 1551.09 597.155C1551.09 598.69 1552.62 599.934 1554.51 599.934Z" fill="#61E987"/>
<path d="M1515.17 599.934C1517.06 599.934 1518.59 598.69 1518.59 597.155C1518.59 595.621 1517.06 594.376 1515.17 594.376C1513.28 594.376 1511.75 595.621 1511.75 597.155C1511.75 598.69 1513.28 599.934 1515.17 599.934Z" fill="#61E987"/>
<path d="M1475.82 599.934C1477.71 599.934 1479.24 598.69 1479.24 597.155C1479.24 595.621 1477.71 594.376 1475.82 594.376C1473.93 594.376 1472.4 595.621 1472.4 597.155C1472.4 598.69 1473.93 599.934 1475.82 599.934Z" fill="#61E987"/>
<path d="M1436.48 599.934C1438.37 599.934 1439.9 598.69 1439.9 597.155C1439.9 595.621 1438.37 594.376 1436.48 594.376C1434.59 594.376 1433.05 595.621 1433.05 597.155C1433.05 598.69 1434.59 599.934 1436.48 599.934Z" fill="#61E987"/>
<path d="M1593.86 565.2C1595.75 565.2 1597.28 563.956 1597.28 562.421C1597.28 560.886 1595.75 559.642 1593.86 559.642C1591.97 559.642 1590.44 560.886 1590.44 562.421C1590.44 563.956 1591.97 565.2 1593.86 565.2Z" fill="#61E987"/>
<path d="M1554.51 565.2C1556.4 565.2 1557.93 563.956 1557.93 562.421C1557.93 560.886 1556.4 559.642 1554.51 559.642C1552.62 559.642 1551.09 560.886 1551.09 562.421C1551.09 563.956 1552.62 565.2 1554.51 565.2Z" fill="#61E987"/>
<path d="M1515.17 565.2C1517.06 565.2 1518.59 563.956 1518.59 562.421C1518.59 560.886 1517.06 559.642 1515.17 559.642C1513.28 559.642 1511.75 560.886 1511.75 562.421C1511.75 563.956 1513.28 565.2 1515.17 565.2Z" fill="#61E987"/>
<path d="M1475.82 565.2C1477.71 565.2 1479.24 563.956 1479.24 562.421C1479.24 560.886 1477.71 559.642 1475.82 559.642C1473.93 559.642 1472.4 560.886 1472.4 562.421C1472.4 563.956 1473.93 565.2 1475.82 565.2Z" fill="#61E987"/>
<path d="M1436.48 565.2C1438.37 565.2 1439.9 563.956 1439.9 562.421C1439.9 560.886 1438.37 559.642 1436.48 559.642C1434.59 559.642 1433.05 560.886 1433.05 562.421C1433.05 563.956 1434.59 565.2 1436.48 565.2Z" fill="#61E987"/>
<path d="M1593.86 530.465C1595.75 530.465 1597.28 529.221 1597.28 527.686C1597.28 526.152 1595.75 524.908 1593.86 524.908C1591.97 524.908 1590.44 526.152 1590.44 527.686C1590.44 529.221 1591.97 530.465 1593.86 530.465Z" fill="#61E987"/>
<path d="M1554.51 530.465C1556.4 530.465 1557.93 529.221 1557.93 527.686C1557.93 526.152 1556.4 524.908 1554.51 524.908C1552.62 524.908 1551.09 526.152 1551.09 527.686C1551.09 529.221 1552.62 530.465 1554.51 530.465Z" fill="#61E987"/>
<path d="M1515.17 530.465C1517.06 530.465 1518.59 529.221 1518.59 527.686C1518.59 526.152 1517.06 524.908 1515.17 524.908C1513.28 524.908 1511.75 526.152 1511.75 527.686C1511.75 529.221 1513.28 530.465 1515.17 530.465Z" fill="#61E987"/>
<path d="M1475.82 530.465C1477.71 530.465 1479.24 529.221 1479.24 527.686C1479.24 526.152 1477.71 524.908 1475.82 524.908C1473.93 524.908 1472.4 526.152 1472.4 527.686C1472.4 529.221 1473.93 530.465 1475.82 530.465Z" fill="#61E987"/>
<path d="M1436.48 530.465C1438.37 530.465 1439.9 529.221 1439.9 527.686C1439.9 526.152 1438.37 524.908 1436.48 524.908C1434.59 524.908 1433.05 526.152 1433.05 527.686C1433.05 529.221 1434.59 530.465 1436.48 530.465Z" fill="#61E987"/>
<path d="M1593.86 495.731C1595.75 495.731 1597.28 494.487 1597.28 492.952C1597.28 491.417 1595.75 490.173 1593.86 490.173C1591.97 490.173 1590.44 491.417 1590.44 492.952C1590.44 494.487 1591.97 495.731 1593.86 495.731Z" fill="#61E987"/>
<path d="M1554.51 495.731C1556.4 495.731 1557.93 494.487 1557.93 492.952C1557.93 491.417 1556.4 490.173 1554.51 490.173C1552.62 490.173 1551.09 491.417 1551.09 492.952C1551.09 494.487 1552.62 495.731 1554.51 495.731Z" fill="#61E987"/>
<path d="M1515.17 495.731C1517.06 495.731 1518.59 494.487 1518.59 492.952C1518.59 491.417 1517.06 490.173 1515.17 490.173C1513.28 490.173 1511.75 491.417 1511.75 492.952C1511.75 494.487 1513.28 495.731 1515.17 495.731Z" fill="#61E987"/>
<path d="M1475.82 495.731C1477.71 495.731 1479.24 494.487 1479.24 492.952C1479.24 491.417 1477.71 490.173 1475.82 490.173C1473.93 490.173 1472.4 491.417 1472.4 492.952C1472.4 494.487 1473.93 495.731 1475.82 495.731Z" fill="#61E987"/>
<path d="M1436.48 495.731C1438.37 495.731 1439.9 494.487 1439.9 492.952C1439.9 491.417 1438.37 490.173 1436.48 490.173C1434.59 490.173 1433.05 491.417 1433.05 492.952C1433.05 494.487 1434.59 495.731 1436.48 495.731Z" fill="#61E987"/>
<path d="M1593.86 460.996C1595.75 460.996 1597.28 459.752 1597.28 458.218C1597.28 456.683 1595.75 455.439 1593.86 455.439C1591.97 455.439 1590.44 456.683 1590.44 458.218C1590.44 459.752 1591.97 460.996 1593.86 460.996Z" fill="#61E987"/>
<path d="M1554.51 460.996C1556.4 460.996 1557.93 459.752 1557.93 458.218C1557.93 456.683 1556.4 455.439 1554.51 455.439C1552.62 455.439 1551.09 456.683 1551.09 458.218C1551.09 459.752 1552.62 460.996 1554.51 460.996Z" fill="#61E987"/>
<path d="M1515.17 460.996C1517.06 460.996 1518.59 459.752 1518.59 458.218C1518.59 456.683 1517.06 455.439 1515.17 455.439C1513.28 455.439 1511.75 456.683 1511.75 458.218C1511.75 459.752 1513.28 460.996 1515.17 460.996Z" fill="#61E987"/>
<path d="M1475.82 460.996C1477.71 460.996 1479.24 459.752 1479.24 458.218C1479.24 456.683 1477.71 455.439 1475.82 455.439C1473.93 455.439 1472.4 456.683 1472.4 458.218C1472.4 459.752 1473.93 460.996 1475.82 460.996Z" fill="#61E987"/>
<path d="M1436.48 460.996C1438.37 460.996 1439.9 459.752 1439.9 458.218C1439.9 456.683 1438.37 455.439 1436.48 455.439C1434.59 455.439 1433.05 456.683 1433.05 458.218C1433.05 459.752 1434.59 460.996 1436.48 460.996Z" fill="#61E987"/>
</g>
<defs>
<clipPath id="clip0_8036_25750">
<rect width="1920" height="1040" fill="white"/>
</clipPath>
</defs>
</svg>
